<svg width="158" height="43" viewBox="0 0 158 43" fill="none" xmlns="http://www.w3.org/2000/svg">
<path d="M25.6692 20.3698C25.6278 15.7634 29.4409 13.5224 29.6153 13.4181C27.4558 10.2696 24.1085 9.83936 22.9323 9.80506C20.1211 9.50922 17.3941 11.4872 15.9621 11.4872C14.5014 11.4872 12.2961 9.83365 9.91936 9.88224C6.86085 9.9294 3.99957 11.7002 2.4303 14.45C-0.808289 20.0568 1.60708 28.2962 4.70989 32.8282C6.26201 35.0478 8.07568 37.526 10.4496 37.4388C12.7721 37.3431 13.6396 35.9582 16.4423 35.9582C19.2192 35.9582 20.0339 37.4388 22.455 37.3831C24.9475 37.3431 26.5168 35.1535 28.0146 32.914C29.8082 30.37 30.5286 27.8646 30.5571 27.7359C30.4985 27.7159 25.7164 25.8908 25.6692 20.3698Z" fill="#182852"/>
<path d="M21.0959 6.82353C22.345 5.2614 23.1997 3.13617 22.9624 0.979492C21.1545 1.05953 18.8935 2.23005 17.5915 3.75788C16.4395 5.10419 15.4105 7.31089 15.6763 9.3861C17.7072 9.5376 19.7925 8.36136 21.0959 6.82353Z" fill="#182852"/>
<path d="M59.2796 37.12H56.0338L54.2559 31.5332H48.076L46.3824 37.12H43.2224L49.3451 18.1001H53.1268L59.2796 37.12ZM53.72 29.1893L52.1121 24.2228C51.942 23.7155 51.6233 22.5206 51.1531 20.6398H51.0959C50.9087 21.4487 50.6071 22.6436 50.1927 24.2228L48.6134 29.1893H53.72Z" fill="#182852"/>
<path d="M75.0247 30.0938C75.0247 32.4263 74.3944 34.2699 73.1339 35.6234C72.0048 36.8282 70.6027 37.4299 68.9291 37.4299C67.1226 37.4299 65.8249 36.7811 65.0345 35.4833H64.9774V42.708H61.9303V27.92C61.9303 26.4536 61.8917 24.9486 61.8174 23.4051H64.4972L64.6672 25.5789H64.7244C65.7406 23.941 67.2827 23.1235 69.3522 23.1235C70.97 23.1235 72.3206 23.7624 73.4011 25.0415C74.4845 26.3221 75.0247 28.0057 75.0247 30.0938ZM71.9205 30.2053C71.9205 28.8704 71.6203 27.7699 71.0172 26.9038C70.3583 26.0005 69.4737 25.5489 68.3646 25.5489C67.6128 25.5489 66.9297 25.8004 66.3194 26.2964C65.7077 26.7966 65.3075 27.4498 65.1203 28.2587C65.026 28.636 64.9788 28.9447 64.9788 29.1877V31.4744C64.9788 32.472 65.2846 33.3138 65.8963 34.0012C66.508 34.6887 67.3027 35.0317 68.2803 35.0317C69.4279 35.0317 70.3212 34.5887 70.96 33.7054C71.6003 32.8207 71.9205 31.6545 71.9205 30.2053Z" fill="#182852"/>
<path d="M90.7994 30.0938C90.7994 32.4263 90.1691 34.2699 88.9071 35.6234C87.7795 36.8282 86.3774 37.4299 84.7038 37.4299C82.8973 37.4299 81.5996 36.7811 80.8107 35.4833H80.7535V42.708H77.7064V27.92C77.7064 26.4536 77.6678 24.9486 77.5935 23.4051H80.2733L80.4434 25.5789H80.5005C81.5153 23.941 83.0574 23.1235 85.1283 23.1235C86.7447 23.1235 88.0953 23.7624 89.1787 25.0415C90.2577 26.3221 90.7994 28.0057 90.7994 30.0938ZM87.6952 30.2053C87.6952 28.8704 87.3936 27.7699 86.7905 26.9038C86.1316 26.0005 85.2498 25.5489 84.1393 25.5489C83.3861 25.5489 82.7044 25.8004 82.0927 26.2964C81.481 26.7966 81.0822 27.4498 80.895 28.2587C80.8021 28.636 80.7535 28.9447 80.7535 29.1877V31.4744C80.7535 32.472 81.0593 33.3138 81.6682 34.0012C82.2799 34.6873 83.0745 35.0317 84.055 35.0317C85.2026 35.0317 86.0959 34.5887 86.7347 33.7054C87.375 32.8207 87.6952 31.6545 87.6952 30.2053Z" fill="#182852"/>
<path d="M108.436 31.7861C108.436 33.404 107.874 34.7203 106.746 35.7364C105.507 36.8469 103.782 37.4015 101.566 37.4015C99.519 37.4015 97.8782 37.007 96.6362 36.2166L97.3423 33.6769C98.68 34.4859 100.148 34.8918 101.747 34.8918C102.895 34.8918 103.788 34.6316 104.43 34.1143C105.069 33.5969 105.387 32.9023 105.387 32.0362C105.387 31.2644 105.124 30.6141 104.597 30.0868C104.072 29.5594 103.196 29.0692 101.973 28.6161C98.6428 27.3741 96.9792 25.5547 96.9792 23.1622C96.9792 21.5987 97.5624 20.3167 98.73 19.3191C99.8934 18.3201 101.446 17.8213 103.386 17.8213C105.117 17.8213 106.555 18.1229 107.703 18.7245L106.941 21.2085C105.869 20.6254 104.657 20.3338 103.301 20.3338C102.229 20.3338 101.391 20.5982 100.791 21.1242C100.284 21.5944 100.029 22.1675 100.029 22.8464C100.029 23.5982 100.319 24.2199 100.902 24.7086C101.41 25.1603 102.332 25.6491 103.669 26.1764C105.306 26.8353 106.508 27.6057 107.281 28.4889C108.051 29.3693 108.436 30.4712 108.436 31.7861Z" fill="#182852"/>
<path d="M118.51 25.6918H115.152V32.3505C115.152 34.0441 115.743 34.8902 116.93 34.8902C117.474 34.8902 117.926 34.843 118.283 34.7487L118.367 37.0626C117.767 37.2869 116.977 37.3999 115.998 37.3999C114.794 37.3999 113.854 37.0325 113.175 36.2994C112.499 35.5647 112.159 34.3328 112.159 32.602V25.6889H110.158V23.4022H112.159V20.8911L115.152 19.9878V23.4022H118.51V25.6918Z" fill="#182852"/>
<path d="M133.664 30.1496C133.664 32.2577 133.061 33.9884 131.858 35.3419C130.596 36.7354 128.921 37.43 126.832 37.43C124.82 37.43 123.218 36.7625 122.023 35.4276C120.828 34.0928 120.231 32.4077 120.231 30.3768C120.231 28.2516 120.846 26.5108 122.079 25.1573C123.309 23.8024 124.97 23.125 127.058 23.125C129.071 23.125 130.69 23.7924 131.912 25.1288C133.081 26.425 133.664 28.0987 133.664 30.1496ZM130.503 30.2482C130.503 28.9833 130.233 27.8986 129.685 26.9939C129.046 25.8991 128.133 25.3531 126.95 25.3531C125.725 25.3531 124.794 25.9005 124.156 26.9939C123.608 27.9 123.338 29.0019 123.338 30.3053C123.338 31.5702 123.608 32.655 124.156 33.5582C124.814 34.653 125.735 35.199 126.923 35.199C128.086 35.199 128.999 34.6416 129.658 33.5296C130.22 32.6078 130.503 31.5116 130.503 30.2482Z" fill="#182852"/>
<path d="M143.568 26.0849C143.267 26.0291 142.945 26.0005 142.608 26.0005C141.536 26.0005 140.707 26.405 140.124 27.2154C139.617 27.93 139.362 28.8332 139.362 29.9237V37.1198H136.316L136.345 27.7242C136.345 26.1435 136.306 24.7042 136.231 23.4065H138.885L138.996 26.0305H139.081C139.402 25.1287 139.909 24.4027 140.604 23.8581C141.283 23.3679 142.016 23.1235 142.807 23.1235C143.088 23.1235 143.342 23.1435 143.568 23.1793V26.0849Z" fill="#182852"/>
<path d="M157.196 29.6139C157.196 30.1599 157.16 30.6201 157.084 30.996H147.943C147.979 32.3508 148.421 33.387 149.269 34.1016C150.04 34.7405 151.036 35.0606 152.259 35.0606C153.613 35.0606 154.848 34.8448 155.958 34.4118L156.436 36.527C155.138 37.093 153.606 37.3745 151.838 37.3745C149.711 37.3745 148.042 36.7485 146.827 35.498C145.615 34.2474 145.008 32.5681 145.008 30.4614C145.008 28.3934 145.572 26.6712 146.703 25.2977C147.886 23.8313 149.485 23.0981 151.498 23.0981C153.474 23.0981 154.971 23.8313 155.987 25.2977C156.791 26.4625 157.196 27.9031 157.196 29.6139ZM154.29 28.8236C154.31 27.9203 154.112 27.1399 153.699 26.4811C153.171 25.6336 152.361 25.2105 151.27 25.2105C150.274 25.2105 149.464 25.6236 148.845 26.4525C148.338 27.1114 148.036 27.9017 147.943 28.8221H154.29V28.8236Z" fill="#182852"/>
<path d="M52.7128 6.39901C52.7128 8.08119 52.2083 9.34747 51.2007 10.1978C50.2674 10.9825 48.9411 11.3755 47.2232 11.3755C46.3714 11.3755 45.6425 11.3384 45.0322 11.264V2.07279C45.8283 1.94416 46.6858 1.87842 47.612 1.87842C49.2484 1.87842 50.4818 2.23429 51.3136 2.94604C52.2454 3.75068 52.7128 4.9012 52.7128 6.39901ZM51.1335 6.44045C51.1335 5.34997 50.8448 4.51388 50.2674 3.93076C49.69 3.34907 48.8468 3.05752 47.7363 3.05752C47.2647 3.05752 46.863 3.08896 46.53 3.1547V10.1421C46.7144 10.1707 47.0517 10.1836 47.5419 10.1836C48.6881 10.1836 49.5728 9.86484 50.196 9.22741C50.8191 8.58998 51.1335 7.661 51.1335 6.44045Z" fill="#182852"/>
<path d="M61.0867 7.86808C61.0867 8.90426 60.7908 9.75321 60.1992 10.4192C59.5789 11.1038 58.7571 11.4454 57.7309 11.4454C56.7419 11.4454 55.9544 11.1181 55.367 10.4607C54.781 9.80466 54.488 8.97715 54.488 7.97956C54.488 6.93624 54.7896 6.08014 55.3956 5.41556C56.0016 4.75097 56.8162 4.41797 57.8424 4.41797C58.8314 4.41797 59.626 4.74526 60.2277 5.40126C60.7994 6.03869 61.0867 6.86192 61.0867 7.86808ZM59.5331 7.91667C59.5331 7.29497 59.3988 6.76187 59.1315 6.31739C58.8171 5.78 58.3698 5.51131 57.7881 5.51131C57.1864 5.51131 56.729 5.78 56.4146 6.31739C56.1459 6.76187 56.013 7.30354 56.013 7.94383C56.013 8.56553 56.1473 9.09863 56.4146 9.54311C56.739 10.0805 57.1907 10.3492 57.7738 10.3492C58.3455 10.3492 58.7942 10.0762 59.1172 9.52882C59.3945 9.07576 59.5331 8.53838 59.5331 7.91667Z" fill="#182852"/>
<path d="M72.3147 4.55518L70.2066 11.2925H68.8346L67.9614 8.36688C67.7398 7.63655 67.5597 6.91051 67.4197 6.19019H67.3925C67.2625 6.93052 67.0824 7.65513 66.8509 8.36688L65.9233 11.2925H64.5355L62.5532 4.55518H64.0925L64.8542 7.75803C65.0386 8.51552 65.1901 9.23727 65.3116 9.92043H65.3387C65.4502 9.35732 65.6346 8.63986 65.8947 7.77233L66.8509 4.55661H68.0714L68.9875 7.70372C69.209 8.47121 69.3891 9.21011 69.5278 9.92186H69.5692C69.6707 9.22869 69.8236 8.48979 70.0266 7.70372L70.8441 4.55661H72.3147V4.55518Z" fill="#182852"/>
<path d="M80.0793 11.2924H78.5815V7.43349C78.5815 6.24439 78.1299 5.64984 77.2238 5.64984C76.7793 5.64984 76.4205 5.81277 76.1418 6.14006C75.866 6.46735 75.7259 6.85323 75.7259 7.29486V11.2909H74.2281V6.48021C74.2281 5.88852 74.2096 5.2468 74.1738 4.55221H75.4901L75.5602 5.60554H75.6016C75.776 5.27825 76.0361 5.00813 76.3777 4.79232C76.7836 4.54077 77.238 4.41357 77.7354 4.41357C78.3643 4.41357 78.8874 4.61652 79.3033 5.02385C79.8206 5.52264 80.0793 6.26726 80.0793 7.25627V11.2924Z" fill="#182852"/>
<path d="M84.2098 11.2925H82.7134V1.46387H84.2098V11.2925Z" fill="#182852"/>
<path d="M93.0281 7.86808C93.0281 8.90426 92.7323 9.75321 92.1406 10.4192C91.5203 11.1038 90.6971 11.4454 89.6723 11.4454C88.6819 11.4454 87.8944 11.1181 87.3084 10.4607C86.7224 9.80466 86.4294 8.97715 86.4294 7.97956C86.4294 6.93624 86.731 6.08014 87.337 5.41556C87.943 4.75097 88.7576 4.41797 89.7824 4.41797C90.7728 4.41797 91.566 4.74526 92.1691 5.40126C92.7408 6.03869 93.0281 6.86192 93.0281 7.86808ZM91.4731 7.91667C91.4731 7.29497 91.3388 6.76187 91.0715 6.31739C90.7585 5.78 90.3097 5.51131 89.7295 5.51131C89.1264 5.51131 88.669 5.78 88.356 6.31739C88.0873 6.76187 87.9544 7.30354 87.9544 7.94383C87.9544 8.56553 88.0888 9.09863 88.356 9.54311C88.6804 10.0805 89.1321 10.3492 89.7152 10.3492C90.2869 10.3492 90.7342 10.0762 91.0572 9.52882C91.3359 9.07576 91.4731 8.53838 91.4731 7.91667Z" fill="#182852"/>
<path d="M100.277 11.2925H98.932L98.8205 10.5164H98.7791C98.3189 11.1353 97.6629 11.4454 96.8111 11.4454C96.1751 11.4454 95.6605 11.241 95.2732 10.8351C94.9216 10.4664 94.7458 10.0076 94.7458 9.46308C94.7458 8.63985 95.0889 8.01243 95.7792 7.57795C96.468 7.14347 97.4371 6.93052 98.6848 6.94052V6.81475C98.6848 5.92721 98.2188 5.48416 97.2856 5.48416C96.621 5.48416 96.035 5.65138 95.5291 5.98295L95.2246 4.99966C95.8506 4.61234 96.6238 4.41797 97.5357 4.41797C99.2965 4.41797 100.18 5.34695 100.18 7.20493V9.68603C100.18 10.3592 100.213 10.8951 100.277 11.2925ZM98.7219 8.97715V7.93811C97.0697 7.90953 96.2437 8.36259 96.2437 9.29586C96.2437 9.64745 96.338 9.91042 96.5309 10.0862C96.7239 10.262 96.9697 10.3492 97.2627 10.3492C97.5914 10.3492 97.8987 10.2449 98.1788 10.0376C98.4604 9.82896 98.6333 9.56455 98.6976 9.24012C98.7133 9.16723 98.7219 9.07862 98.7219 8.97715Z" fill="#182852"/>
<path d="M108.787 11.2925H107.458L107.388 10.2106H107.347C106.922 11.0339 106.199 11.4455 105.183 11.4455C104.371 11.4455 103.695 11.1268 103.159 10.4893C102.623 9.8519 102.356 9.02439 102.356 8.00822C102.356 6.91773 102.646 6.03448 103.229 5.35989C103.794 4.73104 104.485 4.41661 105.309 4.41661C106.213 4.41661 106.847 4.72104 107.207 5.33131H107.235V1.46387H108.735V9.47744C108.735 10.1335 108.752 10.738 108.787 11.2925ZM107.235 8.45127V7.32791C107.235 7.13354 107.221 6.97633 107.194 6.85628C107.109 6.49611 106.928 6.19312 106.652 5.94873C106.373 5.70433 106.038 5.58142 105.65 5.58142C105.091 5.58142 104.654 5.80295 104.333 6.24743C104.014 6.69192 103.852 7.25931 103.852 7.95248C103.852 8.61849 104.005 9.15873 104.313 9.57463C104.637 10.0177 105.074 10.2392 105.622 10.2392C106.113 10.2392 106.506 10.0548 106.805 9.68468C107.094 9.3431 107.235 8.93149 107.235 8.45127Z" fill="#182852"/>
<path d="M121.598 7.86808C121.598 8.90426 121.302 9.75321 120.71 10.4192C120.09 11.1038 119.27 11.4454 118.242 11.4454C117.255 11.4454 116.467 11.1181 115.878 10.4607C115.292 9.80466 114.999 8.97715 114.999 7.97956C114.999 6.93624 115.301 6.08014 115.907 5.41556C116.513 4.75097 117.327 4.41797 118.355 4.41797C119.343 4.41797 120.139 4.74526 120.739 5.40126C121.311 6.03869 121.598 6.86192 121.598 7.86808ZM120.046 7.91667C120.046 7.29497 119.911 6.76187 119.644 6.31739C119.328 5.78 118.882 5.51131 118.299 5.51131C117.699 5.51131 117.242 5.78 116.926 6.31739C116.657 6.76187 116.524 7.30354 116.524 7.94383C116.524 8.56553 116.659 9.09863 116.926 9.54311C117.25 10.0805 117.702 10.3492 118.285 10.3492C118.857 10.3492 119.307 10.0762 119.63 9.52882C119.906 9.07576 120.046 8.53838 120.046 7.91667Z" fill="#182852"/>
<path d="M129.651 11.2924H128.155V7.43349C128.155 6.24439 127.703 5.64984 126.796 5.64984C126.351 5.64984 125.992 5.81277 125.715 6.14006C125.438 6.46735 125.299 6.85323 125.299 7.29486V11.2909H123.8V6.48021C123.8 5.88852 123.783 5.2468 123.747 4.55221H125.062L125.132 5.60554H125.173C125.349 5.27825 125.609 5.00813 125.949 4.79232C126.357 4.54077 126.81 4.41357 127.309 4.41357C127.936 4.41357 128.459 4.61652 128.875 5.02385C129.394 5.52264 129.651 6.26726 129.651 7.25627V11.2924Z" fill="#182852"/>
<path d="M139.731 5.67726H138.082V8.95015C138.082 9.78195 138.375 10.1979 138.955 10.1979C139.224 10.1979 139.447 10.175 139.623 10.1278L139.661 11.264C139.366 11.3755 138.977 11.4313 138.498 11.4313C137.906 11.4313 137.446 11.2512 137.113 10.891C136.779 10.5309 136.613 9.92487 136.613 9.07449V5.67726H135.628V4.55533H136.613V3.3205L138.081 2.87744V4.55391H139.73V5.67726H139.731Z" fill="#182852"/>
<path d="M147.661 11.2925H146.162V7.46226C146.162 6.25458 145.71 5.65002 144.805 5.65002C144.111 5.65002 143.636 6.00018 143.376 6.70049C143.332 6.8477 143.306 7.02778 143.306 7.2393V11.2911H141.81V1.46387H143.306V5.52425H143.335C143.806 4.78535 144.482 4.41661 145.359 4.41661C145.979 4.41661 146.492 4.61956 146.899 5.02689C147.407 5.53426 147.661 6.28888 147.661 7.28647V11.2925Z" fill="#182852"/>
<path d="M155.84 7.60527C155.84 7.87396 155.82 8.09978 155.785 8.28415H151.293C151.313 8.95016 151.527 9.45753 151.943 9.80911C152.323 10.1235 152.813 10.2808 153.414 10.2808C154.078 10.2808 154.684 10.175 155.23 9.96204L155.465 11.0025C154.826 11.2798 154.074 11.4184 153.204 11.4184C152.16 11.4184 151.338 11.1111 150.744 10.4966C150.146 9.882 149.851 9.05735 149.851 8.0226C149.851 7.00644 150.126 6.16034 150.682 5.48576C151.263 4.76543 152.047 4.40527 153.038 4.40527C154.007 4.40527 154.743 4.76543 155.24 5.48576C155.642 6.05744 155.84 6.7649 155.84 7.60527ZM154.411 7.21796C154.423 6.77347 154.324 6.39045 154.121 6.06744C153.861 5.65154 153.465 5.44288 152.929 5.44288C152.44 5.44288 152.042 5.64583 151.737 6.05315C151.488 6.37758 151.341 6.7649 151.293 7.21796H154.411Z" fill="#182852"/>
</svg>
