<svg width="147" height="40" viewBox="0 0 147 40" fill="none" xmlns="http://www.w3.org/2000/svg">
<path d="M23.6849 18.5978C23.6462 14.2985 27.2052 12.2069 27.3679 12.1095C25.3523 9.17089 22.2283 8.76938 21.1305 8.73737C18.5066 8.46124 15.9615 10.3074 14.6249 10.3074C13.2616 10.3074 11.2034 8.76404 8.98504 8.8094C6.13043 8.85342 3.4599 10.5062 1.99525 13.0726C-1.02743 18.3056 1.22691 25.9957 4.12287 30.2256C5.57151 32.2972 7.26427 34.6102 9.47992 34.5289C11.6476 34.4395 12.4573 33.1469 15.0731 33.1469C17.6649 33.1469 18.4252 34.5289 20.6849 34.4769C23.0113 34.4395 24.4759 32.3959 25.8739 30.3057C27.548 27.9313 28.2203 25.5929 28.247 25.4728C28.1923 25.4542 23.7289 23.7507 23.6849 18.5978Z" fill="white"/>
<path d="M19.4163 5.95476C20.5822 4.49677 21.3799 2.51322 21.1585 0.500324C19.471 0.575024 17.3608 1.66751 16.1455 3.09348C15.0704 4.35004 14.11 6.40963 14.3581 8.34649C16.2536 8.48789 18.1998 7.39007 19.4163 5.95476Z" fill="white"/>
<path d="M55.0546 34.2312H52.0252L50.3658 29.0169H44.5979L43.0172 34.2312H40.0679L45.7824 16.4793H49.312L55.0546 34.2312ZM49.8656 26.8292L48.3649 22.1938C48.2062 21.7203 47.9087 20.6051 47.4698 18.8497H47.4165C47.2417 19.6047 46.9603 20.7198 46.5734 22.1938L45.0994 26.8292H49.8656V26.8292Z" fill="white"/>
<path d="M69.7502 27.6736C69.7502 29.8506 69.1619 31.5714 67.9854 32.8346C66.9316 33.9591 65.623 34.5207 64.061 34.5207C62.3749 34.5207 61.1637 33.9151 60.426 32.7039H60.3727V39.4469H57.5287V25.6447C57.5287 24.2761 57.4927 22.8715 57.4233 21.4308H59.9245L60.0832 23.4597H60.1366C61.085 21.9311 62.5243 21.1681 64.4558 21.1681C65.9658 21.1681 67.2264 21.7643 68.2348 22.9582C69.2459 24.1534 69.7502 25.7247 69.7502 27.6736ZM66.8529 27.7777C66.8529 26.5318 66.5728 25.5047 66.0098 24.6963C65.3949 23.8532 64.5692 23.4317 63.5341 23.4317C62.8324 23.4317 62.1948 23.6665 61.6252 24.1294C61.0543 24.5962 60.6808 25.2059 60.506 25.9609C60.418 26.313 60.374 26.6011 60.374 26.8279V28.9622C60.374 29.8933 60.6595 30.679 61.2304 31.3206C61.8013 31.9622 62.543 32.2823 63.4554 32.2823C64.5265 32.2823 65.3602 31.8688 65.9565 31.0445C66.5541 30.2188 66.8529 29.1303 66.8529 27.7777Z" fill="white"/>
<path d="M84.473 27.6736C84.473 29.8506 83.8847 31.5714 82.7068 32.8346C81.6544 33.9591 80.3458 34.5207 78.7838 34.5207C77.0977 34.5207 75.8865 33.9151 75.1501 32.7039H75.0968V39.4469H72.2528V25.6447C72.2528 24.2761 72.2168 22.8715 72.1475 21.4308H74.6486L74.8073 23.4597H74.8607C75.8078 21.9311 77.2471 21.1681 79.1799 21.1681C80.6886 21.1681 81.9492 21.7643 82.9603 22.9582C83.9674 24.1534 84.473 25.7247 84.473 27.6736ZM81.5757 27.7777C81.5757 26.5318 81.2942 25.5047 80.7313 24.6963C80.1163 23.8532 79.2933 23.4317 78.2569 23.4317C77.5539 23.4317 76.9176 23.6665 76.3467 24.1294C75.7758 24.5962 75.4036 25.2059 75.2288 25.9609C75.1421 26.313 75.0968 26.6011 75.0968 26.8279V28.9622C75.0968 29.8933 75.3822 30.679 75.9505 31.3206C76.5214 31.9609 77.2631 32.2823 78.1782 32.2823C79.2493 32.2823 80.083 31.8688 80.6793 31.0445C81.2769 30.2188 81.5757 29.1303 81.5757 27.7777Z" fill="white"/>
<path d="M100.934 29.2531C100.934 30.7631 100.41 31.9916 99.3571 32.94C98.2006 33.9765 96.5905 34.4941 94.5216 34.4941C92.6114 34.4941 91.0801 34.1259 89.9209 33.3882L90.5799 31.0178C91.8284 31.7728 93.1984 32.1517 94.691 32.1517C95.7622 32.1517 96.5959 31.9089 97.1948 31.426C97.7911 30.9431 98.0885 30.2949 98.0885 29.4865C98.0885 28.7662 97.8431 28.1592 97.3509 27.667C96.8613 27.1748 96.0436 26.7173 94.9018 26.2944C91.7937 25.1352 90.241 23.4371 90.241 21.2041C90.241 19.7448 90.7853 18.5483 91.8751 17.6172C92.9609 16.6848 94.4096 16.2192 96.221 16.2192C97.8364 16.2192 99.1784 16.5007 100.25 17.0623L99.5385 19.3806C98.5381 18.8364 97.4069 18.5643 96.141 18.5643C95.1406 18.5643 94.3589 18.8111 93.7986 19.3019C93.3251 19.7408 93.0876 20.2757 93.0876 20.9093C93.0876 21.611 93.3584 22.1912 93.9027 22.6474C94.3762 23.069 95.2366 23.5252 96.4852 24.0174C98.0125 24.6323 99.1343 25.3513 99.856 26.1757C100.575 26.9974 100.934 28.0258 100.934 29.2531Z" fill="white"/>
<path d="M110.336 23.5652H107.202V29.7799C107.202 31.3607 107.754 32.1503 108.861 32.1503C109.369 32.1503 109.791 32.1063 110.124 32.0183L110.203 34.1779C109.643 34.3873 108.905 34.4927 107.991 34.4927C106.868 34.4927 105.991 34.1499 105.357 33.4656C104.726 32.78 104.409 31.6301 104.409 30.0147V23.5625H102.541V21.4282H104.409V19.0845L107.202 18.2415V21.4282H110.336V23.5652Z" fill="white"/>
<path d="M124.48 27.7258C124.48 29.6933 123.917 31.3087 122.794 32.572C121.616 33.8725 120.053 34.5208 118.104 34.5208C116.226 34.5208 114.731 33.8979 113.615 32.652C112.5 31.4061 111.943 29.8334 111.943 27.9379C111.943 25.9543 112.516 24.3296 113.667 23.0664C114.816 21.8018 116.366 21.1695 118.315 21.1695C120.193 21.1695 121.704 21.7925 122.845 23.0397C123.936 24.2496 124.48 25.8116 124.48 27.7258ZM121.53 27.8178C121.53 26.6373 121.277 25.6249 120.767 24.7805C120.17 23.7587 119.318 23.2491 118.213 23.2491C117.07 23.2491 116.202 23.76 115.606 24.7805C115.095 25.6262 114.843 26.6547 114.843 27.8712C114.843 29.0517 115.095 30.0642 115.606 30.9072C116.221 31.929 117.08 32.4386 118.188 32.4386C119.274 32.4386 120.126 31.9183 120.741 30.8805C121.265 30.0202 121.53 28.997 121.53 27.8178Z" fill="white"/>
<path d="M133.724 23.932C133.443 23.8799 133.143 23.8533 132.828 23.8533C131.827 23.8533 131.054 24.2308 130.509 24.9871C130.036 25.6541 129.798 26.4971 129.798 27.5149V34.2312H126.956L126.982 25.462C126.982 23.9866 126.946 22.6434 126.876 21.4322H129.353L129.457 23.8813H129.536C129.836 23.0396 130.309 22.3619 130.958 21.8537C131.591 21.3962 132.275 21.1681 133.013 21.1681C133.276 21.1681 133.513 21.1867 133.724 21.2201V23.932Z" fill="white"/>
<path d="M146.443 27.2255C146.443 27.7351 146.41 28.1646 146.339 28.5154H137.807C137.841 29.78 138.253 30.7471 139.045 31.414C139.764 32.0103 140.694 32.3091 141.836 32.3091C143.099 32.3091 144.251 32.1077 145.288 31.7035L145.733 33.6777C144.522 34.206 143.092 34.4687 141.442 34.4687C139.457 34.4687 137.899 33.8845 136.765 32.7173C135.634 31.5501 135.067 29.9827 135.067 28.0165C135.067 26.0863 135.594 24.4789 136.649 23.197C137.754 21.8284 139.247 21.1441 141.125 21.1441C142.97 21.1441 144.366 21.8284 145.315 23.197C146.066 24.2842 146.443 25.6288 146.443 27.2255ZM143.731 26.4878C143.75 25.6448 143.565 24.9165 143.179 24.3015C142.687 23.5105 141.93 23.1157 140.913 23.1157C139.983 23.1157 139.227 23.5012 138.649 24.2749C138.175 24.8898 137.894 25.6275 137.807 26.4865H143.731V26.4878Z" fill="white"/>
<path d="M48.9256 5.55863C48.9256 7.12866 48.4547 8.31052 47.5143 9.10421C46.6433 9.83654 45.4054 10.2034 43.802 10.2034C43.007 10.2034 42.3267 10.1687 41.7571 10.0993V1.52083C42.5001 1.40077 43.3004 1.33941 44.1648 1.33941C45.6922 1.33941 46.8434 1.67156 47.6197 2.33586C48.4894 3.08686 48.9256 4.16067 48.9256 5.55863ZM47.4516 5.59731C47.4516 4.57953 47.1822 3.79918 46.6433 3.25493C46.1044 2.71202 45.3173 2.4399 44.2809 2.4399C43.8407 2.4399 43.4658 2.46925 43.155 2.53061V9.05219C43.3271 9.07887 43.6419 9.09087 44.0995 9.09087C45.1693 9.09087 45.995 8.79341 46.5766 8.19847C47.1582 7.60354 47.4516 6.73649 47.4516 5.59731Z" fill="white"/>
<path d="M56.7413 6.92987C56.7413 7.89697 56.4651 8.68932 55.9129 9.31093C55.334 9.94989 54.567 10.2687 53.6092 10.2687C52.6861 10.2687 51.9511 9.96323 51.4029 9.34962C50.856 8.73735 50.5825 7.965 50.5825 7.03392C50.5825 6.06015 50.864 5.26113 51.4296 4.64085C51.9951 4.02057 52.7555 3.70977 53.7132 3.70977C54.6363 3.70977 55.378 4.01524 55.9396 4.62751C56.4731 5.22244 56.7413 5.99079 56.7413 6.92987ZM55.2913 6.97523C55.2913 6.39497 55.1659 5.89741 54.9165 5.48256C54.623 4.981 54.2055 4.73022 53.6626 4.73022C53.101 4.73022 52.6741 4.981 52.3807 5.48256C52.1299 5.89741 52.0058 6.40297 52.0058 7.00057C52.0058 7.58083 52.1312 8.07838 52.3807 8.49324C52.6835 8.99479 53.105 9.24557 53.6492 9.24557C54.1828 9.24557 54.6016 8.99079 54.9031 8.4799C55.1619 8.05704 55.2913 7.55549 55.2913 6.97523Z" fill="white"/>
<path d="M67.2206 3.83776L65.2531 10.1259H63.9725L63.1575 7.39535C62.9507 6.71371 62.7826 6.03608 62.6519 5.36378H62.6265C62.5052 6.05475 62.3371 6.73105 62.121 7.39535L61.2553 10.1259H59.96L58.1099 3.83776H59.5465L60.2575 6.8271C60.4296 7.53408 60.571 8.20771 60.6843 8.84533H60.7097C60.8137 8.31976 60.9858 7.65013 61.2286 6.84044L62.121 3.8391H63.2602L64.1152 6.77641C64.322 7.49273 64.49 8.18237 64.6194 8.84666H64.6581C64.7528 8.19971 64.8956 7.51007 65.085 6.77641L65.848 3.8391H67.2206V3.83776Z" fill="white"/>
<path d="M74.4676 10.1259H73.0696V6.52429C73.0696 5.41446 72.6481 4.85955 71.8024 4.85955C71.3876 4.85955 71.0527 5.01162 70.7926 5.31709C70.5352 5.62256 70.4045 5.98272 70.4045 6.3949V10.1246H69.0065V5.63456C69.0065 5.08231 68.9892 4.48338 68.9558 3.83509H70.1844L70.2497 4.8182H70.2884C70.4511 4.51273 70.6939 4.26061 71.0127 4.05919C71.3916 3.82442 71.8157 3.7057 72.28 3.7057C72.8669 3.7057 73.3551 3.89512 73.7433 4.27529C74.2262 4.74083 74.4676 5.43581 74.4676 6.35889V10.1259V10.1259Z" fill="white"/>
<path d="M78.3226 10.126H76.926V0.95253H78.3226V10.126Z" fill="white"/>
<path d="M86.5533 6.92987C86.5533 7.89697 86.2772 8.68932 85.7249 9.31093C85.146 9.94989 84.3776 10.2687 83.4212 10.2687C82.4968 10.2687 81.7618 9.96323 81.2149 9.34962C80.668 8.73735 80.3945 7.965 80.3945 7.03392C80.3945 6.06015 80.676 5.26113 81.2416 4.64085C81.8072 4.02057 82.5675 3.70977 83.5239 3.70977C84.4483 3.70977 85.1887 4.01524 85.7516 4.62751C86.2852 5.22244 86.5533 5.99079 86.5533 6.92987ZM85.102 6.97523C85.102 6.39497 84.9766 5.89741 84.7271 5.48256C84.435 4.981 84.0161 4.73022 83.4746 4.73022C82.9117 4.73022 82.4848 4.981 82.1927 5.48256C81.9419 5.89741 81.8178 6.40297 81.8178 7.00057C81.8178 7.58083 81.9432 8.07838 82.1927 8.49324C82.4955 8.99479 82.917 9.24557 83.4612 9.24557C83.9948 9.24557 84.4123 8.99079 84.7138 8.4799C84.9739 8.05704 85.102 7.55549 85.102 6.97523Z" fill="white"/>
<path d="M93.3188 10.126H92.0636L91.9595 9.40164H91.9208C91.4913 9.97923 90.879 10.2687 90.084 10.2687C89.4904 10.2687 89.0102 10.0779 88.6487 9.69911C88.3206 9.35495 88.1565 8.92676 88.1565 8.41854C88.1565 7.65019 88.4766 7.0646 89.1209 6.65908C89.7639 6.25357 90.6683 6.05481 91.8328 6.06415V5.94677C91.8328 5.1184 91.3979 4.70488 90.5269 4.70488C89.9066 4.70488 89.3597 4.86095 88.8875 5.17042L88.6034 4.25268C89.1876 3.89118 89.9093 3.70977 90.7603 3.70977C92.4037 3.70977 93.2281 4.57682 93.2281 6.31093V8.62663C93.2281 9.25491 93.2588 9.75513 93.3188 10.126ZM91.8675 7.965V6.99524C90.3255 6.96856 89.5545 7.39141 89.5545 8.26247C89.5545 8.59061 89.6425 8.83606 89.8226 9.00013C90.0027 9.1642 90.2321 9.24557 90.5055 9.24557C90.8123 9.24557 91.0991 9.1482 91.3606 8.95478C91.6234 8.76002 91.7848 8.51325 91.8448 8.21044C91.8595 8.14241 91.8675 8.05971 91.8675 7.965Z" fill="white"/>
<path d="M101.262 10.126H100.021L99.956 9.11617H99.9174C99.5212 9.88452 98.8462 10.2687 97.8978 10.2687C97.1401 10.2687 96.5092 9.97122 96.0089 9.37629C95.5087 8.78136 95.2593 8.00901 95.2593 7.06059C95.2593 6.0428 95.5301 5.21843 96.0743 4.58882C96.6012 4.00189 97.2468 3.70843 98.0152 3.70843C98.8595 3.70843 99.4505 3.99255 99.7866 4.56214H99.8133V0.95253H101.213V8.43187C101.213 9.04414 101.229 9.60839 101.262 10.126ZM99.8133 7.47411V6.42564C99.8133 6.24423 99.8 6.09749 99.7746 5.98544C99.6959 5.64929 99.5265 5.3665 99.2691 5.1384C99.0089 4.9103 98.6955 4.79558 98.334 4.79558C97.8124 4.79558 97.4042 5.00234 97.1041 5.41719C96.8066 5.83204 96.6559 6.36161 96.6559 7.00857C96.6559 7.63018 96.7986 8.1344 97.0854 8.52258C97.3882 8.93609 97.7964 9.14285 98.3073 9.14285C98.7662 9.14285 99.133 8.97078 99.4118 8.62529C99.6812 8.30648 99.8133 7.92231 99.8133 7.47411Z" fill="white"/>
<path d="M113.218 6.92987C113.218 7.89697 112.942 8.68932 112.39 9.31093C111.811 9.94989 111.045 10.2687 110.086 10.2687C109.165 10.2687 108.43 9.96323 107.88 9.34962C107.333 8.73735 107.06 7.965 107.06 7.03392C107.06 6.06015 107.341 5.26113 107.907 4.64085C108.472 4.02057 109.233 3.70977 110.192 3.70977C111.113 3.70977 111.856 4.01524 112.417 4.62751C112.95 5.22244 113.218 5.99079 113.218 6.92987ZM111.77 6.97523C111.77 6.39497 111.644 5.89741 111.395 5.48256C111.1 4.981 110.684 4.73022 110.14 4.73022C109.579 4.73022 109.153 4.981 108.858 5.48256C108.607 5.89741 108.483 6.40297 108.483 7.00057C108.483 7.58083 108.608 8.07838 108.858 8.49324C109.161 8.99479 109.582 9.24557 110.126 9.24557C110.66 9.24557 111.08 8.99079 111.382 8.4799C111.639 8.05704 111.77 7.55549 111.77 6.97523Z" fill="white"/>
<path d="M120.735 10.1259H119.338V6.52429C119.338 5.41446 118.917 4.85955 118.07 4.85955C117.655 4.85955 117.32 5.01162 117.061 5.31709C116.802 5.62256 116.673 5.98272 116.673 6.3949V10.1246H115.274V5.63456C115.274 5.08231 115.258 4.48338 115.224 3.83509H116.452L116.517 4.8182H116.556C116.72 4.51273 116.962 4.26061 117.28 4.05919C117.66 3.82442 118.083 3.7057 118.549 3.7057C119.134 3.7057 119.622 3.89512 120.011 4.27529C120.495 4.74083 120.735 5.43581 120.735 6.35889V10.1259V10.1259Z" fill="white"/>
<path d="M130.143 4.88495H128.604V7.93965C128.604 8.71599 128.877 9.10417 129.419 9.10417C129.669 9.10417 129.877 9.08282 130.042 9.0388L130.078 10.0993C129.801 10.2033 129.439 10.2553 128.992 10.2553C128.44 10.2553 128.01 10.0873 127.699 9.75112C127.387 9.41497 127.232 8.84938 127.232 8.0557V4.88495H126.313V3.83781H127.232V2.6853L128.602 2.27178V3.83648H130.142V4.88495H130.143Z" fill="white"/>
<path d="M137.544 10.126H136.145V6.55103C136.145 5.42386 135.723 4.85961 134.879 4.85961C134.23 4.85961 133.788 5.18642 133.545 5.84005C133.503 5.97744 133.479 6.14552 133.479 6.34294V10.1246H132.083V0.95253H133.479V4.74222H133.506C133.946 4.05258 134.577 3.70843 135.395 3.70843C135.974 3.70843 136.453 3.89784 136.833 4.27801C137.306 4.75156 137.544 5.45587 137.544 6.38696V10.126V10.126Z" fill="white"/>
<path d="M145.178 6.6844C145.178 6.93518 145.159 7.14594 145.126 7.31802H140.934C140.952 7.93963 141.152 8.41317 141.541 8.74132C141.895 9.03478 142.353 9.18152 142.913 9.18152C143.533 9.18152 144.099 9.08281 144.609 8.88405L144.827 9.85515C144.231 10.1139 143.529 10.2433 142.717 10.2433C141.743 10.2433 140.976 9.95653 140.421 9.38294C139.864 8.80935 139.588 8.03967 139.588 7.07391C139.588 6.12549 139.845 5.3358 140.364 4.70618C140.906 4.03388 141.638 3.69773 142.562 3.69773C143.467 3.69773 144.154 4.03388 144.618 4.70618C144.993 5.23976 145.178 5.90005 145.178 6.6844ZM143.844 6.32291C143.855 5.90805 143.763 5.55056 143.573 5.24909C143.331 4.86092 142.961 4.66617 142.461 4.66617C142.005 4.66617 141.633 4.85558 141.348 5.23575C141.116 5.53856 140.979 5.90005 140.934 6.32291H143.844Z" fill="white"/>
</svg>
