<svg width="175" height="42" viewBox="0 0 175 42" fill="none" xmlns="http://www.w3.org/2000/svg">
<path d="M88.2101 23.0246C86.9506 23.0305 85.721 23.4094 84.6766 24.1135C83.6322 24.8176 82.8198 25.8153 82.3418 26.9807C81.8639 28.1461 81.742 29.4269 81.9913 30.6616C82.2407 31.8962 82.8502 33.0293 83.7429 33.9179C84.6357 34.8065 85.7716 35.4106 87.0074 35.6542C88.2432 35.8978 89.5235 35.7698 90.6866 35.2864C91.8498 34.803 92.8436 33.9859 93.5428 32.9382C94.242 31.8905 94.6151 30.6592 94.6152 29.3996C94.6274 28.5565 94.4698 27.7196 94.1519 26.9386C93.834 26.1577 93.3622 25.4487 92.7645 24.8538C92.1669 24.259 91.4557 23.7905 90.6733 23.4763C89.8909 23.162 89.0532 23.0084 88.2101 23.0246ZM88.2101 33.2696C87.4355 33.3238 86.6625 33.1437 85.9916 32.7527C85.3207 32.3617 84.7829 31.7779 84.4482 31.0772C84.1134 30.3766 83.9972 29.5914 84.1147 28.8238C84.2321 28.0562 84.5777 27.3417 85.1066 26.7731C85.6355 26.2046 86.3232 25.8083 87.0803 25.6358C87.8374 25.4632 88.6289 25.5224 89.3519 25.8057C90.0749 26.089 90.696 26.5832 91.1344 27.2241C91.5728 27.8651 91.8083 28.6231 91.8102 29.3996C91.8343 29.8916 91.7597 30.3835 91.5907 30.8462C91.4218 31.309 91.1619 31.7332 90.8264 32.0939C90.4908 32.4545 90.0865 32.7444 89.6372 32.9463C89.1878 33.1483 88.7026 33.2582 88.2101 33.2696ZM74.2452 23.0246C72.9849 23.0276 71.7539 23.404 70.7075 24.1063C69.6611 24.8086 68.8463 25.8052 68.3661 26.9704C67.8859 28.1355 67.7618 29.4168 68.0095 30.6525C68.2571 31.8881 68.8655 33.0226 69.7576 33.9127C70.6498 34.8027 71.7857 35.4084 73.0219 35.6532C74.2582 35.8979 75.5392 35.7708 76.7032 35.2879C77.8672 34.8049 78.862 33.9878 79.5618 32.9398C80.2616 31.8918 80.6351 30.6598 80.6351 29.3996C80.6474 28.5565 80.4898 27.7196 80.1719 26.9386C79.854 26.1577 79.3822 25.4487 78.7845 24.8538C78.1869 24.259 77.4757 23.7905 76.6933 23.4763C75.9109 23.162 75.0732 23.0084 74.2301 23.0246H74.2452ZM74.2452 33.2696C73.4701 33.3268 72.6959 33.1494 72.0231 32.7604C71.3503 32.3715 70.8103 31.7889 70.4732 31.0887C70.1361 30.3885 70.0176 29.6031 70.1332 28.8346C70.2488 28.0661 70.593 27.3502 71.1211 26.7801C71.6492 26.21 72.3367 25.8121 73.0942 25.6382C73.8516 25.4643 74.6438 25.5225 75.3677 25.8051C76.0916 26.0878 76.7136 26.5818 77.1528 27.2229C77.592 27.864 77.828 28.6225 77.8302 29.3996C77.8543 29.8916 77.7797 30.3835 77.6107 30.8462C77.4418 31.309 77.1819 31.7332 76.8464 32.0939C76.5108 32.4545 76.1065 32.7444 75.6572 32.9463C75.2078 33.1483 74.7226 33.2582 74.2301 33.2696H74.2452ZM57.6102 24.9896V27.6896H64.0902C63.9885 28.9613 63.4599 30.1613 62.5902 31.0946C61.9419 31.7549 61.1625 32.2723 60.3022 32.6133C59.4419 32.9543 58.5198 33.1114 57.5951 33.0746C55.6856 33.0746 53.8542 32.316 52.504 30.9658C51.1537 29.6155 50.3951 27.7842 50.3951 25.8746C50.3951 23.965 51.1537 22.1337 52.504 20.7834C53.8542 19.4332 55.6856 18.6746 57.5951 18.6746C59.4218 18.6448 61.1858 19.3407 62.5001 20.6096L64.4051 18.7046C63.5179 17.8061 62.4593 17.0949 61.2921 16.6131C60.1249 16.1313 58.8728 15.8886 57.6102 15.8996C56.2766 15.8477 54.9464 16.0655 53.6991 16.54C52.4518 17.0146 51.3131 17.736 50.3513 18.6611C49.3895 19.5862 48.6243 20.696 48.1016 21.9239C47.579 23.1518 47.3096 24.4726 47.3096 25.8071C47.3096 27.1416 47.579 28.4624 48.1016 29.6903C48.6243 30.9182 49.3895 32.028 50.3513 32.9531C51.3131 33.8782 52.4518 34.5996 53.6991 35.0741C54.9464 35.5487 56.2766 35.7665 57.6102 35.7146C58.8941 35.7726 60.1755 35.555 61.3683 35.0763C62.5611 34.5976 63.6375 33.8691 64.5251 32.9396C66.0967 31.213 66.9357 28.9432 66.8651 26.6096C66.87 26.0411 66.8198 25.4734 66.7152 24.9146L57.6102 24.9896ZM125.575 27.0896C125.184 25.9387 124.452 24.9338 123.477 24.2079C122.502 23.482 121.33 23.0693 120.115 23.0246C119.295 23.023 118.483 23.1897 117.729 23.5144C116.975 23.8391 116.297 24.3149 115.734 24.9124C115.172 25.5099 114.738 26.2164 114.46 26.9882C114.181 27.76 114.064 28.5807 114.115 29.3996C114.097 30.238 114.248 31.0714 114.559 31.8501C114.87 32.6289 115.335 33.3369 115.926 33.932C116.517 34.527 117.221 34.9969 117.998 35.3135C118.774 35.6301 119.607 35.7869 120.445 35.7746C121.494 35.7802 122.529 35.5256 123.455 35.0335C124.382 34.5413 125.172 33.827 125.755 32.9546L123.58 31.4546C123.256 31.9958 122.796 32.4434 122.246 32.7537C121.697 33.0639 121.076 33.2262 120.445 33.2246C119.795 33.2494 119.153 33.0781 118.602 32.733C118.051 32.3879 117.617 31.8849 117.355 31.2896L125.89 27.7646L125.575 27.0896ZM116.875 29.2196C116.845 28.7556 116.907 28.2903 117.059 27.8508C117.211 27.4112 117.448 27.0064 117.759 26.66C118.069 26.3135 118.445 26.0325 118.865 25.8332C119.285 25.634 119.741 25.5205 120.205 25.4996C120.689 25.4677 121.172 25.5787 121.593 25.8187C122.014 26.0587 122.356 26.4171 122.575 26.8496L116.875 29.2196ZM109.945 35.3996H112.75V16.6496H109.945V35.3996ZM105.355 24.4496H105.25C104.827 23.9769 104.31 23.599 103.73 23.3405C103.151 23.082 102.524 22.9488 101.89 22.9496C100.251 23.0291 98.7051 23.7362 97.5731 24.9245C96.4411 26.1127 95.8097 27.6909 95.8097 29.3321C95.8097 30.9732 96.4411 32.5515 97.5731 33.7397C98.7051 34.928 100.251 35.6351 101.89 35.7146C102.526 35.7253 103.156 35.5965 103.737 35.3374C104.317 35.0782 104.834 34.695 105.25 34.2146H105.34V35.1296C105.34 37.5746 104.035 38.8796 101.935 38.8796C101.236 38.8632 100.557 38.6391 99.9854 38.2357C99.4137 37.8324 98.975 37.2681 98.7252 36.6146L96.2801 37.6346C96.7404 38.7541 97.5246 39.7106 98.5322 40.3815C99.5397 41.0523 100.725 41.4068 101.935 41.3996C105.22 41.3996 107.935 39.4646 107.935 34.7546V23.3996H105.355V24.4496ZM102.145 33.2696C101.178 33.1843 100.277 32.7397 99.6211 32.0233C98.9651 31.307 98.6012 30.3709 98.6012 29.3996C98.6012 28.4283 98.9651 27.4922 99.6211 26.7758C100.277 26.0595 101.178 25.6149 102.145 25.5296C102.625 25.5542 103.095 25.6746 103.527 25.8836C103.96 26.0927 104.346 26.3862 104.663 26.7468C104.981 27.1075 105.223 27.528 105.375 27.9836C105.527 28.4392 105.587 28.9206 105.55 29.3996C105.591 29.8806 105.534 30.365 105.382 30.8233C105.231 31.2817 104.988 31.7045 104.668 32.0663C104.348 32.428 103.959 32.7212 103.522 32.928C103.086 33.1348 102.613 33.251 102.13 33.2696H102.145ZM138.715 16.6496H132.01V35.3996H134.815V28.2896H138.73C139.53 28.347 140.332 28.2391 141.088 27.9727C141.844 27.7062 142.537 27.2869 143.124 26.7408C143.71 26.1948 144.178 25.5337 144.498 24.7988C144.818 24.064 144.983 23.2711 144.983 22.4696C144.983 21.6681 144.818 20.8752 144.498 20.1403C144.178 19.4055 143.71 18.7444 143.124 18.1984C142.537 17.6523 141.844 17.233 141.088 16.9665C140.332 16.7 139.53 16.5922 138.73 16.6496H138.715ZM138.715 25.6496H134.8V19.2596H138.775C139.628 19.2596 140.447 19.5986 141.05 20.202C141.654 20.8054 141.993 21.6238 141.993 22.4771C141.993 23.3304 141.654 24.1488 141.05 24.7522C140.447 25.3556 139.628 25.6946 138.775 25.6946L138.715 25.6496ZM156.01 22.9496C154.989 22.8886 153.972 23.1272 153.085 23.6362C152.197 24.1452 151.478 24.9023 151.015 25.8146L153.505 26.8496C153.751 26.3971 154.122 26.0258 154.575 25.7808C155.028 25.5358 155.542 25.4276 156.055 25.4696C156.411 25.428 156.772 25.4577 157.116 25.5571C157.461 25.6564 157.782 25.8234 158.061 26.0482C158.341 26.273 158.572 26.5511 158.743 26.8664C158.914 27.1817 159.02 27.5278 159.055 27.8846V28.0796C158.154 27.6026 157.15 27.3553 156.13 27.3596C153.445 27.3596 150.73 28.8596 150.73 31.5746C150.757 32.1535 150.899 32.7212 151.149 33.2442C151.398 33.7671 151.75 34.2347 152.184 34.6193C152.617 35.0039 153.124 35.2976 153.673 35.4832C154.222 35.6687 154.802 35.7423 155.38 35.6996C156.087 35.7503 156.794 35.61 157.427 35.2932C158.06 34.9765 158.597 34.4951 158.98 33.8996H159.07V35.3996H161.77V28.1846C161.77 24.8996 159.28 22.9946 156.085 22.9946L156.01 22.9496ZM155.665 33.2246C154.75 33.2246 153.475 32.7596 153.475 31.6346C153.475 30.1346 155.065 29.6396 156.475 29.6396C157.366 29.6176 158.247 29.8352 159.025 30.2696C158.931 31.0817 158.547 31.8325 157.944 32.3838C157.34 32.9351 156.557 33.2497 155.74 33.2696L155.665 33.2246ZM171.61 23.3996L168.4 31.5296H168.31L164.98 23.3996H161.98L166.975 34.7696L164.125 41.0846H167.05L174.73 23.3996H171.61ZM146.395 35.3996H149.2V16.6496H146.395V35.3996Z" fill="#182852"/>
<path d="M57.0365 5.85346C57.062 6.40365 56.9754 6.95327 56.782 7.46898C56.5886 7.98468 56.2924 8.45571 55.9115 8.85346C55.4861 9.29535 54.9723 9.64263 54.4037 9.87265C53.8351 10.1027 53.2244 10.2103 52.6115 10.1885C51.6814 10.1812 50.7742 9.8996 50.0036 9.37899C49.2329 8.85838 48.633 8.1219 48.279 7.26183C47.925 6.40177 47.8328 5.45637 48.0138 4.5441C48.1948 3.63182 48.641 2.79326 49.2965 2.13346C49.7273 1.69364 50.2438 1.3469 50.814 1.11469C51.3842 0.882479 51.9959 0.769746 52.6115 0.783464C53.2456 0.781351 53.8735 0.908966 54.4565 1.15846C54.9992 1.37739 55.4824 1.7218 55.8665 2.16346L55.0715 2.95846C54.7721 2.60235 54.394 2.32075 53.967 2.13592C53.5401 1.95108 53.076 1.86808 52.6115 1.89346C52.1429 1.89117 51.6787 1.9835 51.2468 2.16495C50.8148 2.34639 50.4239 2.6132 50.0975 2.94937C49.7711 3.28555 49.516 3.68417 49.3474 4.12133C49.1789 4.55849 49.1003 5.0252 49.1165 5.49346C49.1066 6.19266 49.3041 6.87911 49.684 7.46622C50.0638 8.05332 50.609 8.51477 51.2509 8.79235C51.8927 9.06994 52.6023 9.15122 53.2903 9.02595C53.9782 8.90068 54.6137 8.57446 55.1165 8.08846C55.578 7.58827 55.8442 6.93871 55.8665 6.25846H52.6115V5.17846H56.9765C57.0165 5.40124 57.0365 5.62713 57.0365 5.85346ZM63.9065 2.10346H59.8565V4.95346H63.5465V6.03346H59.8565V8.88346H63.9065V9.99346H58.6565V0.993463H63.9065V2.10346ZM68.8265 9.99346H67.6715V2.10346H65.1515V0.993463H71.4065V2.10346H68.8265V9.99346ZM75.8165 9.99346V0.993463H76.9715V9.99346H75.8165ZM82.1015 9.99346H80.9465V2.10346H78.4265V0.993463H84.6065V2.10346H82.1015V9.99346ZM96.3215 8.82346C95.4446 9.69548 94.2582 10.185 93.0215 10.185C91.7848 10.185 90.5984 9.69548 89.7215 8.82346C88.8691 7.92125 88.3943 6.72712 88.3943 5.48596C88.3943 4.24481 88.8691 3.05068 89.7215 2.14846C90.1537 1.71308 90.6678 1.36753 91.2342 1.13172C91.8005 0.895912 92.408 0.774512 93.0215 0.774512C93.635 0.774512 94.2424 0.895912 94.8088 1.13172C95.3751 1.36753 95.8892 1.71308 96.3215 2.14846C97.1772 3.04896 97.6543 4.24373 97.6543 5.48596C97.6543 6.7282 97.1772 7.92297 96.3215 8.82346ZM90.5765 8.07346C91.2259 8.72015 92.105 9.08322 93.0215 9.08322C93.9379 9.08322 94.8171 8.72015 95.4665 8.07346C96.1073 7.36699 96.4623 6.4473 96.4623 5.49346C96.4623 4.53963 96.1073 3.61994 95.4665 2.91346C94.8171 2.26678 93.9379 1.9037 93.0215 1.9037C92.105 1.9037 91.2259 2.26678 90.5765 2.91346C89.9356 3.61994 89.5806 4.53963 89.5806 5.49346C89.5806 6.4473 89.9356 7.36699 90.5765 8.07346ZM99.2765 9.99346V0.993463H100.686L105.066 7.99846V0.993463H106.221V9.99346H105.021L100.446 2.65846V9.99346H99.2765Z" fill="#182852"/>
<path fill-rule="evenodd" clip-rule="evenodd" d="M93.0215 0.924512C92.4278 0.924512 91.8399 1.042 91.2918 1.2702C90.7443 1.49816 90.2472 1.8321 89.8292 2.25282C89.004 3.12703 88.5443 4.28373 88.5443 5.48596C88.5443 6.68804 89.0039 7.84459 89.8289 8.71876C90.6775 9.56179 91.8252 10.035 93.0215 10.035C94.2178 10.035 95.3656 9.56172 96.2142 8.71858C97.0425 7.84615 97.5043 6.68902 97.5043 5.48596C97.5043 4.28276 97.0424 3.12549 96.2139 2.25302C95.7959 1.83221 95.2987 1.49819 94.7511 1.2702C94.203 1.042 93.6152 0.924512 93.0215 0.924512ZM91.1765 0.993242C91.7612 0.749828 92.3882 0.624512 93.0215 0.624512C93.6548 0.624512 94.2818 0.749828 94.8664 0.993242C95.4511 1.23666 95.9818 1.59335 96.4279 2.04278L96.4302 2.04511C97.3124 2.97348 97.8043 4.20527 97.8043 5.48596C97.8043 6.76665 97.3124 7.99842 96.4302 8.92679L96.4273 8.92987C95.5223 9.82984 94.2978 10.335 93.0215 10.335C91.7452 10.335 90.5207 9.82979 89.6157 8.92982L89.6124 8.92652C88.7337 7.99646 88.2443 6.76543 88.2443 5.48596C88.2443 4.2065 88.7338 2.97552 89.6124 2.04545L89.615 2.04275C90.0611 1.59332 90.5919 1.23666 91.1765 0.993242ZM52.6081 0.933427C52.0131 0.920166 51.4217 1.02914 50.8705 1.25361C50.3193 1.47808 49.8201 1.81326 49.4036 2.23843L49.4029 2.23918C48.7682 2.87803 48.3362 3.68997 48.1609 4.57329C47.9857 5.4566 48.075 6.37198 48.4177 7.20475C48.7604 8.03751 49.3413 8.7506 50.0875 9.25469C50.8337 9.75877 51.7121 10.0314 52.6126 10.0385L52.6168 10.0385C53.2087 10.0596 53.7984 9.95572 54.3475 9.7336C54.8965 9.51151 55.3925 9.17622 55.8032 8.74959C56.1701 8.36653 56.4553 7.91293 56.6415 7.41631C56.8278 6.91963 56.9112 6.39029 56.8866 5.86041L57.0365 5.85346L56.8865 5.8534C56.8865 5.67769 56.8739 5.50226 56.8488 5.32846H52.7615V6.10846H56.0214L56.0164 6.26336C55.993 6.97961 55.7127 7.66353 55.2267 8.19019L55.2209 8.19649C54.6968 8.70308 54.0343 9.04294 53.3172 9.17352C52.6 9.3041 51.8603 9.21937 51.1913 8.93003C50.5223 8.64068 49.954 8.15968 49.558 7.5477C49.1627 6.93674 48.9569 6.22257 48.9664 5.495C48.9501 5.00777 49.0321 4.52224 49.2075 4.06736C49.3833 3.61135 49.6495 3.19555 49.9899 2.84489C50.3303 2.49422 50.7381 2.21591 51.1887 2.02665C51.6379 1.83796 52.1205 1.74165 52.6077 1.74345C53.094 1.71757 53.5797 1.80478 54.0266 1.99826C54.4249 2.17069 54.7827 2.42332 55.078 2.73976L55.6595 2.15826C55.3074 1.78405 54.8779 1.4902 54.4004 1.29757L54.3974 1.2964C53.8332 1.05495 53.2256 0.931418 52.612 0.933463L52.6081 0.933427ZM57.1865 5.85002C57.2124 6.41933 57.1226 6.988 56.9224 7.52164C56.7219 8.05638 56.4148 8.54479 56.0198 8.95722C55.5798 9.41429 55.0481 9.77378 54.46 10.0117C53.8725 10.2494 53.2415 10.3607 52.6082 10.3384C51.6494 10.3305 50.7142 10.04 49.9196 9.50328C49.1244 8.96615 48.5055 8.20629 48.1403 7.31892C47.7751 6.43155 47.6799 5.45614 47.8666 4.5149C48.0533 3.57384 48.5136 2.7088 49.1897 2.02812C49.6348 1.57381 50.1683 1.21565 50.7574 0.975765C51.346 0.736059 51.9775 0.619561 52.6129 0.633459C53.2663 0.631543 53.9132 0.763057 54.514 1.01995C55.0782 1.24777 55.5804 1.60589 55.9797 2.06504L56.0714 2.17061L55.0619 3.18017L54.9566 3.05499C54.6722 2.71669 54.313 2.44917 53.9074 2.27357C53.5018 2.09798 53.061 2.01912 52.6196 2.04324L52.6107 2.04373C52.1624 2.04153 51.7182 2.12962 51.3049 2.30324C50.8915 2.47686 50.5174 2.73217 50.2051 3.05386C49.8928 3.37554 49.6487 3.75698 49.4874 4.1753C49.3261 4.59362 49.2509 5.04021 49.2664 5.48829L49.2666 5.49557C49.2572 6.16515 49.4461 6.82251 49.8099 7.38473C50.1737 7.94696 50.6958 8.38885 51.3104 8.65468C51.925 8.9205 52.6046 8.99834 53.2634 8.87837C53.9208 8.75867 54.5281 8.44736 55.0091 7.9836C55.4094 7.54846 55.6538 6.9945 55.707 6.40846H52.4615V5.02846H57.1019L57.1241 5.15195C57.1655 5.38234 57.1863 5.61595 57.1865 5.85002ZM58.5065 0.843463H64.0565V2.25346H60.0065V4.80346H63.6965V6.18346H60.0065V8.73346H64.0565V10.1435H58.5065V0.843463ZM58.8065 1.14346V9.84346H63.7565V9.03346H59.7065V5.88346H63.3965V5.10346H59.7065V1.95346H63.7565V1.14346H58.8065ZM65.0015 0.843463H71.5565V2.25346H68.9765V10.1435H67.5215V2.25346H65.0015V0.843463ZM65.3015 1.14346V1.95346H67.8215V9.84346H68.6765V1.95346H71.2565V1.14346H65.3015ZM75.6665 0.843463H77.1215V10.1435H75.6665V0.843463ZM75.9665 1.14346V9.84346H76.8215V1.14346H75.9665ZM78.2765 0.843463H84.7565V2.25346H82.2515V10.1435H80.7965V2.25346H78.2765V0.843463ZM78.5765 1.14346V1.95346H81.0965V9.84346H81.9515V1.95346H84.4565V1.14346H78.5765ZM99.1265 0.843463H100.77L104.916 7.47564V0.843463H106.371V10.1435H104.938L100.596 3.18239V10.1435H99.1265V0.843463ZM99.4265 1.14346V9.84346H100.296V2.13454L105.105 9.84346H106.071V1.14346H105.216V8.52129L100.603 1.14346H99.4265ZM90.4706 2.80718C91.1481 2.1325 92.0653 1.7537 93.0215 1.7537C93.9776 1.7537 94.8948 2.1325 95.5723 2.80718L95.5777 2.81255C96.2436 3.54662 96.6123 4.50237 96.6123 5.49346C96.6123 6.48456 96.2435 7.44018 95.5776 8.17424L95.5724 8.17989C94.8949 8.85457 93.9776 9.23322 93.0215 9.23322C92.0653 9.23322 91.1481 8.85443 90.4706 8.17975L90.5765 8.07346L90.4654 8.17424C89.7995 7.44017 89.4306 6.48456 89.4306 5.49346C89.4306 4.50237 89.7995 3.54675 90.4654 2.81268L90.4706 2.80718ZM90.685 7.96987C91.306 8.58687 92.146 8.93322 93.0215 8.93322C93.897 8.93322 94.7369 8.58687 95.3579 7.96987C95.9721 7.29137 96.3123 6.40877 96.3123 5.49346C96.3123 4.57815 95.9721 3.69556 95.3579 3.01705C94.7369 2.40005 93.897 2.0537 93.0215 2.0537C92.146 2.0537 91.306 2.40005 90.685 3.01705C90.0708 3.69556 89.7306 4.57815 89.7306 5.49346C89.7306 6.40878 90.0708 7.29137 90.685 7.96987Z" fill="#182852"/>
<path d="M1.65973 1.70949C1.17083 2.29616 0.924059 3.04719 0.969729 3.80949V36.9895C0.924059 37.7518 1.17083 38.5028 1.65973 39.0895L1.76473 39.1945L20.3497 20.6245V20.1895L1.76473 1.60449L1.65973 1.70949Z" fill="url(#paint0_linear_92_4395)"/>
<path d="M26.4999 26.8195L20.3499 20.6245V20.1895L26.4999 13.9795L26.6349 14.0545L33.9998 18.2395C36.0998 19.4245 36.0998 21.3745 33.9998 22.5745L26.6649 26.7445L26.4999 26.8195Z" fill="url(#paint1_linear_92_4395)"/>
<path d="M26.6799 26.7299L20.3499 20.3999L1.65991 39.0899C2.08796 39.4662 2.634 39.6811 3.20368 39.6975C3.77336 39.714 4.33089 39.5309 4.77991 39.1799L26.6949 26.7299" fill="url(#paint2_linear_92_4395)"/>
<path d="M26.6798 14.0697L4.76478 1.61973C4.31575 1.26875 3.75823 1.08566 3.18855 1.10209C2.61886 1.11852 2.07282 1.33345 1.64478 1.70973L20.3498 20.3997L26.6798 14.0697Z" fill="url(#paint3_linear_92_4395)"/>
<path opacity="0.2" d="M26.4999 26.5947L4.76491 38.9697C4.33185 39.2935 3.80564 39.4685 3.26491 39.4685C2.72419 39.4685 2.19798 39.2935 1.76491 38.9697L1.65991 39.0747L1.76491 39.1797C2.197 39.5058 2.72358 39.6822 3.26491 39.6822C3.80624 39.6822 4.33283 39.5058 4.76491 39.1797L26.6799 26.7297L26.4999 26.5947Z" fill="white"/>
<path opacity="0.12" d="M1.65973 38.8799C1.17083 38.2932 0.924059 37.5422 0.969729 36.7799V37.0049C0.924059 37.7672 1.17083 38.5182 1.65973 39.1049L1.76473 38.9999L1.65973 38.8799ZM33.9997 22.3499L26.4997 26.5949L26.6347 26.7299L33.9997 22.5599C34.4176 22.3636 34.7764 22.0605 35.0397 21.6813C35.3031 21.302 35.4618 20.8601 35.4997 20.3999C35.4154 20.818 35.2363 21.2111 34.9763 21.5492C34.7162 21.8872 34.3822 22.1611 33.9997 22.3499Z" fill="white"/>
<path opacity="0.25" d="M4.76484 1.82908L33.9998 18.4491C34.3823 18.6378 34.7163 18.9118 34.9764 19.2498C35.2364 19.5879 35.4155 19.981 35.4998 20.3991C35.4619 19.9389 35.3032 19.4969 35.0398 19.1177C34.7765 18.7385 34.4177 18.4354 33.9998 18.2391L4.76484 1.61908C2.66484 0.434076 0.954834 1.42408 0.954834 3.82408V4.04908C0.999834 1.63408 2.67984 0.644077 4.76484 1.82908Z" fill="#182852"/>
<defs>
<linearGradient id="paint0_linear_92_4395" x1="18.6997" y1="3.46449" x2="-6.47027" y2="28.6345" gradientUnits="userSpaceOnUse">
<stop stop-color="#00A0FF"/>
<stop offset="0.01" stop-color="#00A1FF"/>
<stop offset="0.26" stop-color="#00BEFF"/>
<stop offset="0.51" stop-color="#00D2FF"/>
<stop offset="0.76" stop-color="#00DFFF"/>
<stop offset="1" stop-color="#00E3FF"/>
</linearGradient>
<linearGradient id="paint1_linear_92_4395" x1="36.7448" y1="20.3995" x2="0.459859" y2="20.3995" gradientUnits="userSpaceOnUse">
<stop stop-color="#FFE000"/>
<stop offset="0.41" stop-color="#FFBD00"/>
<stop offset="0.78" stop-color="#FFA500"/>
<stop offset="1" stop-color="#FF9C00"/>
</linearGradient>
<linearGradient id="paint2_linear_92_4395" x1="23.2449" y1="23.8499" x2="-10.8951" y2="57.9749" gradientUnits="userSpaceOnUse">
<stop stop-color="#FF3A44"/>
<stop offset="1" stop-color="#C31162"/>
</linearGradient>
<linearGradient id="paint3_linear_92_4395" x1="-3.05022" y1="-9.33027" x2="12.1898" y2="5.90973" gradientUnits="userSpaceOnUse">
<stop stop-color="#32A071"/>
<stop offset="0.07" stop-color="#2DA771"/>
<stop offset="0.48" stop-color="#15CF74"/>
<stop offset="0.8" stop-color="#06E775"/>
<stop offset="1" stop-color="#00F076"/>
</linearGradient>
</defs>
</svg>
