<svg width="163" height="39" viewBox="0 0 163 39" fill="none" xmlns="http://www.w3.org/2000/svg">
<path d="M82.1228 21.0096C80.9473 21.0151 79.7997 21.3687 78.8249 22.0259C77.8501 22.683 77.0918 23.6142 76.6458 24.7019C76.1997 25.7896 76.0859 26.9851 76.3186 28.1374C76.5513 29.2897 77.1202 30.3473 77.9534 31.1766C78.7867 32.006 79.8469 32.5699 81.0003 32.7972C82.1537 33.0245 83.3486 32.9051 84.4342 32.4539C85.5198 32.0028 86.4474 31.2401 87.1 30.2623C87.7526 29.2844 88.1008 28.1352 88.1009 26.9596C88.1123 26.1727 87.9652 25.3915 87.6685 24.6626C87.3718 23.9337 86.9314 23.272 86.3736 22.7169C85.8158 22.1617 85.152 21.7244 84.4218 21.4311C83.6915 21.1378 82.9097 20.9944 82.1228 21.0096ZM82.1228 30.5716C81.3999 30.6221 80.6784 30.454 80.0522 30.0891C79.426 29.7242 78.9241 29.1793 78.6117 28.5254C78.2993 27.8714 78.1908 27.1386 78.3004 26.4222C78.41 25.7057 78.7326 25.0389 79.2262 24.5082C79.7198 23.9776 80.3617 23.6077 81.0683 23.4466C81.775 23.2856 82.5137 23.3409 83.1885 23.6053C83.8633 23.8697 84.443 24.3309 84.8522 24.9291C85.2613 25.5273 85.4811 26.2348 85.4828 26.9596C85.5054 27.4188 85.4358 27.8779 85.2781 28.3097C85.1204 28.7416 84.8778 29.1376 84.5646 29.4742C84.2515 29.8108 83.8741 30.0814 83.4547 30.2698C83.0354 30.4583 82.5825 30.5609 82.1228 30.5716ZM69.0889 21.0096C67.9127 21.0123 66.7637 21.3636 65.787 22.0191C64.8104 22.6746 64.05 23.6048 63.6018 24.6923C63.1536 25.7797 63.0377 26.9756 63.2689 28.1289C63.5 29.2822 64.0678 30.341 64.9005 31.1718C65.7332 32.0025 66.7934 32.5678 67.9472 32.7962C69.101 33.0247 70.2966 32.906 71.383 32.4553C72.4694 32.0045 73.3979 31.2419 74.0511 30.2637C74.7042 29.2856 75.0528 28.1358 75.0528 26.9596C75.0643 26.1727 74.9172 25.3915 74.6205 24.6626C74.3238 23.9337 73.8834 23.272 73.3256 22.7169C72.7678 22.1617 72.104 21.7244 71.3738 21.4311C70.6435 21.1378 69.8617 20.9944 69.0748 21.0096H69.0889ZM69.0889 30.5716C68.3655 30.625 67.6428 30.4594 67.0149 30.0963C66.387 29.7333 65.8829 29.1896 65.5683 28.5361C65.2537 27.8826 65.1432 27.1495 65.251 26.4322C65.3589 25.715 65.6802 25.0468 66.1731 24.5147C66.666 23.9826 67.3077 23.6113 68.0146 23.449C68.7215 23.2866 69.4609 23.3409 70.1365 23.6047C70.8122 23.8685 71.3928 24.3296 71.8027 24.928C72.2126 25.5263 72.4329 26.2342 72.4348 26.9596C72.4574 27.4188 72.3878 27.8779 72.2301 28.3097C72.0724 28.7416 71.8298 29.1376 71.5166 29.4742C71.2035 29.8108 70.8261 30.0814 70.4067 30.2698C69.9874 30.4583 69.5345 30.5609 69.0748 30.5716H69.0889ZM53.5628 22.8436V25.3636H59.6108C59.516 26.5505 59.0226 27.6705 58.2108 28.5416C57.6058 29.1579 56.8784 29.6407 56.0754 29.959C55.2725 30.2773 54.4119 30.4239 53.5488 30.3896C51.7666 30.3896 50.0573 29.6816 48.7971 28.4213C47.5368 27.1611 46.8288 25.4518 46.8288 23.6696C46.8288 21.8873 47.5368 20.178 48.7971 18.9178C50.0573 17.6575 51.7666 16.9496 53.5488 16.9496C55.2538 16.9217 56.9001 17.5712 58.1268 18.7556L59.9048 16.9776C59.0767 16.139 58.0887 15.4752 56.9993 15.0255C55.9099 14.5758 54.7414 14.3493 53.5628 14.3596C52.3182 14.3111 51.0767 14.5144 49.9125 14.9573C48.7484 15.4002 47.6856 16.0735 46.7879 16.937C45.8902 17.8004 45.1761 18.8362 44.6882 19.9822C44.2004 21.1283 43.949 22.361 43.949 23.6066C43.949 24.8521 44.2004 26.0848 44.6882 27.2309C45.1761 28.3769 45.8902 29.4127 46.7879 30.2761C47.6856 31.1396 48.7484 31.8129 49.9125 32.2558C51.0767 32.6987 52.3182 32.902 53.5628 32.8535C54.7612 32.9077 55.9572 32.7046 57.0705 32.2578C58.1837 31.8111 59.1884 31.1311 60.0168 30.2636C61.4836 28.652 62.2667 26.5336 62.2008 24.3556C62.2054 23.8249 62.1585 23.2951 62.0609 22.7735L53.5628 22.8436ZM116.997 24.8035C116.632 23.7294 115.949 22.7914 115.039 22.1139C114.129 21.4364 113.035 21.0513 111.901 21.0096C111.135 21.0081 110.377 21.1636 109.674 21.4667C108.97 21.7698 108.337 22.2138 107.812 22.7715C107.287 23.3292 106.882 23.9885 106.622 24.7089C106.362 25.4292 106.253 26.1952 106.301 26.9596C106.284 27.742 106.425 28.5199 106.715 29.2467C107.005 29.9735 107.439 30.6344 107.991 31.1898C108.542 31.7451 109.2 32.1837 109.925 32.4792C110.649 32.7746 111.426 32.921 112.209 32.9096C113.188 32.9148 114.153 32.6772 115.018 32.2178C115.883 31.7585 116.621 31.0918 117.165 30.2776L115.135 28.8776C114.832 29.3826 114.403 29.8004 113.89 30.09C113.377 30.3796 112.798 30.531 112.209 30.5296C111.602 30.5527 111.003 30.3928 110.489 30.0707C109.974 29.7486 109.569 29.2792 109.325 28.7235L117.291 25.4336L116.997 24.8035ZM108.877 26.7916C108.848 26.3585 108.907 25.9242 109.048 25.514C109.19 25.1038 109.412 24.7259 109.701 24.4026C109.991 24.0792 110.342 23.8169 110.734 23.6309C111.126 23.445 111.551 23.3391 111.985 23.3196C112.436 23.2898 112.887 23.3933 113.28 23.6173C113.673 23.8414 113.992 24.1759 114.197 24.5796L108.877 26.7916ZM102.409 32.5596H105.027V15.0596H102.409V32.5596ZM98.1248 22.3396H98.0268C97.6323 21.8984 97.1489 21.5456 96.6085 21.3044C96.068 21.0631 95.4827 20.9388 94.8909 20.9396C93.3609 21.0137 91.9182 21.6737 90.8616 22.7828C89.8051 23.8918 89.2157 25.3648 89.2157 26.8966C89.2157 28.4283 89.8051 29.9013 90.8616 31.0103C91.9182 32.1194 93.3609 32.7794 94.8909 32.8535C95.4841 32.8635 96.0724 32.7433 96.6142 32.5015C97.156 32.2596 97.6382 31.9019 98.0268 31.4536H98.1108V32.3076C98.1108 34.5896 96.8928 35.8076 94.9328 35.8076C94.2801 35.7923 93.6466 35.5831 93.113 35.2066C92.5795 34.8302 92.1701 34.3035 91.9368 33.6936L89.6548 34.6456C90.0844 35.6905 90.8163 36.5832 91.7567 37.2093C92.6971 37.8354 93.8031 38.1663 94.9328 38.1596C97.9988 38.1596 100.533 36.3536 100.533 31.9576V21.3596H98.1248V22.3396ZM95.1288 30.5716C94.2258 30.492 93.3853 30.077 92.773 29.4084C92.1608 28.7398 91.8212 27.8661 91.8212 26.9596C91.8212 26.053 92.1608 25.1793 92.773 24.5107C93.3853 23.8421 94.2258 23.4271 95.1288 23.3475C95.5766 23.3705 96.0152 23.4829 96.4189 23.678C96.8225 23.8731 97.1831 24.147 97.4792 24.4836C97.7754 24.8202 98.0012 25.2127 98.1433 25.6379C98.2855 26.0632 98.3411 26.5125 98.3068 26.9596C98.345 27.4085 98.2918 27.8606 98.1503 28.2884C98.0088 28.7162 97.782 29.1108 97.4836 29.4485C97.1852 29.7861 96.8215 30.0597 96.4143 30.2527C96.0072 30.4458 95.5651 30.5542 95.1148 30.5716H95.1288ZM129.261 15.0596H123.003V32.5596H125.621V25.9235H129.275C130.021 25.9772 130.77 25.8765 131.476 25.6278C132.181 25.3791 132.828 24.9877 133.375 24.478C133.923 23.9684 134.36 23.3514 134.658 22.6655C134.957 21.9796 135.111 21.2396 135.111 20.4915C135.111 19.7435 134.957 19.0035 134.658 18.3176C134.36 17.6317 133.923 17.0147 133.375 16.5051C132.828 15.9954 132.181 15.604 131.476 15.3553C130.77 15.1066 130.021 15.0059 129.275 15.0596H129.261ZM129.261 23.4596H125.607V17.4956H129.317C130.113 17.4956 130.877 17.8119 131.44 18.3751C132.003 18.9383 132.32 19.7021 132.32 20.4986C132.32 21.295 132.003 22.0588 131.44 22.622C130.877 23.1852 130.113 23.5015 129.317 23.5015L129.261 23.4596ZM145.403 20.9396C144.45 20.8826 143.501 21.1053 142.673 21.5804C141.844 22.0554 141.173 22.7621 140.741 23.6136L143.065 24.5796C143.294 24.1572 143.641 23.8107 144.063 23.582C144.486 23.3533 144.966 23.2524 145.445 23.2916C145.777 23.2527 146.114 23.2805 146.435 23.3732C146.757 23.4659 147.057 23.6217 147.317 23.8315C147.578 24.0414 147.794 24.301 147.954 24.5953C148.113 24.8895 148.212 25.2126 148.245 25.5456V25.7275C147.404 25.2823 146.466 25.0515 145.515 25.0556C143.009 25.0556 140.475 26.4556 140.475 28.9896C140.5 29.5299 140.632 30.0597 140.865 30.5478C141.098 31.0359 141.427 31.4723 141.832 31.8313C142.236 32.1902 142.709 32.4644 143.221 32.6375C143.734 32.8107 144.275 32.8794 144.815 32.8396C145.474 32.8869 146.134 32.7559 146.725 32.4603C147.316 32.1647 147.817 31.7154 148.175 31.1596H148.259V32.5596H150.779V25.8255C150.779 22.7595 148.455 20.9816 145.473 20.9816L145.403 20.9396ZM145.081 30.5296C144.227 30.5296 143.037 30.0956 143.037 29.0456C143.037 27.6456 144.521 27.1836 145.837 27.1836C146.669 27.163 147.49 27.3661 148.217 27.7716C148.129 28.5295 147.771 29.2303 147.207 29.7448C146.644 30.2594 145.914 30.553 145.151 30.5716L145.081 30.5296ZM159.963 21.3596L156.967 28.9475H156.883L153.775 21.3596H150.975L155.637 31.9716L152.977 37.8656H155.707L162.875 21.3596H159.963ZM136.429 32.5596H139.047V15.0596H136.429V32.5596Z" fill="white"/>
<path d="M53.0273 4.98305C53.0511 5.49656 52.9703 6.00954 52.7898 6.49087C52.6093 6.97219 52.3329 7.41182 51.9773 7.78305C51.5803 8.19548 51.1008 8.51961 50.5701 8.7343C50.0394 8.94899 49.4694 9.04942 48.8973 9.02905C48.0293 9.02226 47.1826 8.75945 46.4633 8.27354C45.744 7.78764 45.1841 7.10026 44.8537 6.29753C44.5233 5.4948 44.4372 4.61243 44.6062 3.76098C44.7751 2.90952 45.1915 2.12686 45.8033 1.51105C46.2054 1.10055 46.6875 0.776924 47.2197 0.560197C47.7518 0.343469 48.3228 0.238252 48.8973 0.251055C49.4892 0.249083 50.0752 0.36819 50.6193 0.601055C51.1259 0.80539 51.5769 1.12683 51.9353 1.53905L51.1933 2.28105C50.9139 1.94868 50.561 1.68586 50.1625 1.51335C49.764 1.34083 49.3309 1.26336 48.8973 1.28705C48.46 1.28491 48.0268 1.37109 47.6236 1.54044C47.2204 1.70978 46.8556 1.95881 46.551 2.27257C46.2464 2.58633 46.0082 2.95838 45.8509 3.3664C45.6936 3.77442 45.6202 4.21001 45.6353 4.64705C45.6261 5.29964 45.8105 5.94033 46.165 6.48829C46.5195 7.03625 47.0284 7.46694 47.6274 7.72602C48.2265 7.9851 48.8888 8.06096 49.5309 7.94404C50.173 7.82712 50.7661 7.52266 51.2353 7.06905C51.6661 6.6022 51.9146 5.99596 51.9353 5.36105H48.8973V4.35306H52.9713C53.0087 4.56097 53.0274 4.77181 53.0273 4.98305ZM59.4393 1.48305H55.6593V4.14305H59.1033V5.15105H55.6593V7.81105H59.4393V8.84705H54.5393V0.447054H59.4393V1.48305ZM64.0313 8.84705H62.9533V1.48305H60.6013V0.447054H66.4393V1.48305H64.0313V8.84705ZM70.5553 8.84705V0.447054H71.6333V8.84705H70.5553ZM76.4213 8.84705H75.3433V1.48305H72.9913V0.447054H78.7593V1.48305H76.4213V8.84705ZM89.6933 7.75505C88.8749 8.56894 87.7676 9.02579 86.6133 9.02579C85.4591 9.02579 84.3518 8.56894 83.5333 7.75505C82.7378 6.91299 82.2946 5.79847 82.2946 4.64005C82.2946 3.48164 82.7378 2.36712 83.5333 1.52505C83.9367 1.1187 84.4166 0.796179 84.9452 0.576093C85.4738 0.356006 86.0407 0.242699 86.6133 0.242699C87.1859 0.242699 87.7529 0.356006 88.2815 0.576093C88.8101 0.796179 89.2899 1.1187 89.6933 1.52505C90.492 2.36551 90.9373 3.48064 90.9373 4.64005C90.9373 5.79947 90.492 6.91459 89.6933 7.75505ZM84.3313 7.05505C84.9374 7.65862 85.758 7.9975 86.6133 7.9975C87.4687 7.9975 88.2892 7.65862 88.8953 7.05505C89.4935 6.39568 89.8248 5.5373 89.8248 4.64705C89.8248 3.75681 89.4935 2.89843 88.8953 2.23905C88.2892 1.63548 87.4687 1.29661 86.6133 1.29661C85.758 1.29661 84.9374 1.63548 84.3313 2.23905C83.7332 2.89843 83.4019 3.75681 83.4019 4.64705C83.4019 5.5373 83.7332 6.39568 84.3313 7.05505ZM92.4513 8.84705V0.447054H93.7673L97.8553 6.98505V0.447054H98.9333V8.84705H97.8133L93.5433 2.00105V8.84705H92.4513Z" fill="white"/>
<path fill-rule="evenodd" clip-rule="evenodd" d="M86.6133 0.382699C86.0592 0.382699 85.5105 0.492351 84.999 0.705338C84.488 0.918102 84.024 1.22979 83.6339 1.62246C82.8637 2.43839 82.4346 3.51797 82.4346 4.64005C82.4346 5.76199 82.8636 6.84144 83.6336 7.65733C84.4257 8.44416 85.4968 8.88579 86.6133 8.88579C87.7299 8.88579 88.8011 8.4441 89.5932 7.65716C90.3663 6.84289 90.7973 5.76291 90.7973 4.64005C90.7973 3.51706 90.3662 2.43695 89.5929 1.62264C89.2028 1.22988 88.7388 0.918136 88.2277 0.705338C87.7161 0.492351 87.1675 0.382699 86.6133 0.382699ZM84.8914 0.446847C85.437 0.219661 86.0223 0.102699 86.6133 0.102699C87.2044 0.102699 87.7896 0.219662 88.3353 0.446847C88.8809 0.674033 89.3763 1.00695 89.7927 1.42642L89.7948 1.42859C90.6182 2.29507 91.0773 3.44474 91.0773 4.64005C91.0773 5.83537 90.6182 6.98501 89.7948 7.85149L89.7921 7.85436C88.9474 8.69433 87.8046 9.16579 86.6133 9.16579C85.4221 9.16579 84.2793 8.69429 83.4346 7.85432L83.4315 7.85124C82.6114 6.98319 82.1546 5.83422 82.1546 4.64005C82.1546 3.44589 82.6115 2.29697 83.4316 1.42891L83.4339 1.42639C83.8504 1.00692 84.3457 0.674033 84.8914 0.446847ZM48.8942 0.39102C48.3389 0.378644 47.7869 0.480354 47.2725 0.689857C46.758 0.89936 46.292 1.2122 45.9033 1.60902L45.9026 1.60973C45.3103 2.20598 44.907 2.9638 44.7435 3.78822C44.5799 4.61265 44.6633 5.46701 44.9832 6.24425C45.303 7.0215 45.8452 7.68705 46.5416 8.15753C47.2381 8.62801 48.058 8.88248 48.8984 8.88906L48.9023 8.88909C49.4548 8.90876 50.0052 8.81183 50.5176 8.60452C51.03 8.39723 51.493 8.08429 51.8763 7.6861C52.2187 7.32859 52.4849 6.90522 52.6587 6.44171C52.8326 5.97815 52.9104 5.48409 52.8875 4.98954L53.0273 4.98305L52.8873 4.983C52.8874 4.819 52.8756 4.65526 52.8522 4.49306H49.0373V5.22105H52.08L52.0752 5.36563C52.0534 6.03412 51.7918 6.67245 51.3382 7.164L51.3328 7.16988C50.8436 7.6427 50.2253 7.9599 49.556 8.08177C48.8867 8.20365 48.1963 8.12457 47.5719 7.85451C46.9474 7.58446 46.417 7.13552 46.0474 6.56434C45.6785 5.99411 45.4864 5.32755 45.4953 4.64849C45.4801 4.19374 45.5566 3.74057 45.7203 3.31603C45.8844 2.89042 46.1328 2.50234 46.4505 2.17505C46.7683 1.84776 47.1488 1.58801 47.5694 1.41136C47.9887 1.23525 48.4391 1.14537 48.8939 1.14704C49.3477 1.12288 49.801 1.20428 50.2181 1.38487C50.5899 1.5458 50.9238 1.78159 51.1995 2.07693L51.7422 1.5342C51.4135 1.18494 51.0127 0.910673 50.567 0.730891L50.5642 0.729792C50.0377 0.504439 49.4706 0.389145 48.8978 0.391054L48.8942 0.39102ZM53.1673 4.97984C53.1915 5.5112 53.1077 6.04196 52.9209 6.54002C52.7338 7.03911 52.4471 7.49496 52.0784 7.87989C51.6678 8.3065 51.1715 8.64201 50.6226 8.86408C50.0743 9.08591 49.4854 9.18981 48.8943 9.16903C47.9994 9.16165 47.1265 8.89052 46.3849 8.38955C45.6428 7.88823 45.0651 7.17902 44.7242 6.35081C44.3834 5.5226 44.2945 4.61222 44.4688 3.73373C44.6431 2.85541 45.0726 2.04803 45.7037 1.41273C46.1191 0.988713 46.6171 0.654425 47.1669 0.430536C47.7162 0.20681 48.3056 0.0980787 48.8987 0.11105C49.5085 0.109262 50.1123 0.232008 50.6731 0.471771C51.1996 0.684405 51.6684 1.01866 52.041 1.44719L52.1266 1.54572L51.1844 2.48798L51.0862 2.37114C50.8207 2.05539 50.4855 1.80571 50.1069 1.64182C49.7283 1.47793 49.3169 1.40434 48.905 1.42685L48.8966 1.4273C48.4782 1.42525 48.0636 1.50747 47.6778 1.66951C47.292 1.83156 46.9429 2.06985 46.6514 2.37009C46.3599 2.67033 46.1321 3.02634 45.9815 3.41677C45.831 3.8072 45.7608 4.22402 45.7752 4.64222L45.7755 4.64902C45.7667 5.27396 45.943 5.8875 46.2825 6.41224C46.622 6.93698 47.1094 7.34942 47.683 7.59752C48.2567 7.84562 48.8909 7.91827 49.5058 7.8063C50.1194 7.69458 50.6862 7.40402 51.1351 6.97118C51.5087 6.56505 51.7369 6.04802 51.7865 5.50105H48.7573V4.21306H53.0884L53.1091 4.32831C53.1477 4.54334 53.1672 4.76137 53.1673 4.97984ZM54.3993 0.307054H59.5793V1.62305H55.7993V4.00305H59.2433V5.29105H55.7993V7.67105H59.5793V8.98705H54.3993V0.307054ZM54.6793 0.587054V8.70705H59.2993V7.95105H55.5193V5.01105H58.9633V4.28305H55.5193V1.34305H59.2993V0.587054H54.6793ZM60.4613 0.307054H66.5793V1.62305H64.1713V8.98705H62.8133V1.62305H60.4613V0.307054ZM60.7413 0.587054V1.34305H63.0933V8.70705H63.8913V1.34305H66.2993V0.587054H60.7413ZM70.4153 0.307054H71.7733V8.98705H70.4153V0.307054ZM70.6953 0.587054V8.70705H71.4933V0.587054H70.6953ZM72.8513 0.307054H78.8993V1.62305H76.5613V8.98705H75.2033V1.62305H72.8513V0.307054ZM73.1313 0.587054V1.34305H75.4833V8.70705H76.2813V1.34305H78.6193V0.587054H73.1313ZM92.3113 0.307054H93.8449L97.7153 6.49708V0.307054H99.0733V8.98705H97.7357L93.6833 2.49005V8.98705H92.3113V0.307054ZM92.5913 0.587054V8.70705H93.4033V1.51206L97.891 8.70705H98.7933V0.587054H97.9953V7.47303L93.6897 0.587054H92.5913ZM84.2325 2.13985C84.8649 1.51015 85.7209 1.15661 86.6133 1.15661C87.5057 1.15661 88.3618 1.51015 88.9941 2.13985L88.9992 2.14487C89.6206 2.83 89.9648 3.72203 89.9648 4.64705C89.9648 5.57207 89.6205 6.46399 88.999 7.14912L88.9942 7.15438C88.3619 7.78408 87.5057 8.1375 86.6133 8.1375C85.7209 8.1375 84.8649 7.78395 84.2325 7.15425L84.3313 7.05505L84.2276 7.14912C83.6061 6.46398 83.2619 5.57207 83.2619 4.64705C83.2619 3.72203 83.6061 2.83012 84.2276 2.14499L84.2325 2.13985ZM84.4326 6.95837C85.0123 7.53424 85.7962 7.8575 86.6133 7.8575C87.4305 7.8575 88.2144 7.53424 88.794 6.95837C89.3673 6.3251 89.6848 5.50135 89.6848 4.64705C89.6848 3.79276 89.3673 2.96901 88.794 2.33574C88.2144 1.75987 87.4305 1.43661 86.6133 1.43661C85.7962 1.43661 85.0123 1.75987 84.4326 2.33574C83.8594 2.96901 83.5419 3.79276 83.5419 4.64705C83.5419 5.50135 83.8594 6.3251 84.4326 6.95837Z" fill="white"/>
<path d="M1.34262 1.11556C0.886311 1.66311 0.655994 2.36408 0.698619 3.07556V34.0436C0.655994 34.755 0.886311 35.456 1.34262 36.0036L1.44062 36.1016L18.7866 18.7696V18.3636L1.44062 1.01756L1.34262 1.11556Z" fill="url(#paint0_linear_92_5383)"/>
<path d="M24.5266 24.5516L18.7866 18.7696V18.3636L24.5266 12.5676L24.6526 12.6376L31.5266 16.5436C33.4866 17.6496 33.4866 19.4696 31.5266 20.5896L24.6806 24.4816L24.5266 24.5516Z" fill="url(#paint1_linear_92_5383)"/>
<path d="M24.6945 24.4676L18.7865 18.5596L1.34253 36.0036C1.74204 36.3548 2.25168 36.5554 2.78338 36.5707C3.31508 36.586 3.83544 36.4151 4.25453 36.0876L24.7085 24.4676" fill="url(#paint2_linear_92_5383)"/>
<path d="M24.6946 12.6516L4.24061 1.03156C3.82153 0.703982 3.30117 0.533095 2.76947 0.548433C2.23776 0.563771 1.72812 0.764371 1.32861 1.11556L18.7866 18.5596L24.6946 12.6516Z" fill="url(#paint3_linear_92_5383)"/>
<path opacity="0.2" d="M24.5265 24.3416L4.24053 35.8916C3.83634 36.1938 3.34521 36.3571 2.84053 36.3571C2.33585 36.3571 1.84472 36.1938 1.44053 35.8916L1.34253 35.9896L1.44053 36.0876C1.84381 36.3919 2.33529 36.5566 2.84053 36.5566C3.34577 36.5566 3.83725 36.3919 4.24053 36.0876L24.6945 24.4676L24.5265 24.3416Z" fill="#F15A22"/>
<path opacity="0.12" d="M1.34262 35.8076C0.886311 35.26 0.655994 34.559 0.698619 33.8476V34.0576C0.655994 34.769 0.886311 35.47 1.34262 36.0176L1.44062 35.9196L1.34262 35.8076ZM31.5266 20.3796L24.5266 24.3416L24.6526 24.4676L31.5266 20.5756C31.9167 20.3923 32.2515 20.1095 32.4973 19.7555C32.7431 19.4016 32.8912 18.989 32.9266 18.5596C32.8479 18.9498 32.6808 19.3167 32.4381 19.6322C32.1954 19.9477 31.8836 20.2034 31.5266 20.3796Z" fill="#F15A22"/>
<path opacity="0.25" d="M4.24057 1.22703L31.5266 16.739C31.8835 16.9152 32.1953 17.1709 32.438 17.4864C32.6807 17.8019 32.8478 18.1688 32.9266 18.559C32.8911 18.1296 32.743 17.717 32.4972 17.3631C32.2514 17.0091 31.9166 16.7262 31.5266 16.543L4.24057 1.03102C2.28057 -0.0749756 0.68457 0.849026 0.68457 3.08903V3.29903C0.72657 1.04503 2.29457 0.121026 4.24057 1.22703Z" fill="white"/>
<defs>
<linearGradient id="paint0_linear_92_5383" x1="17.2466" y1="2.75356" x2="-6.24538" y2="26.2456" gradientUnits="userSpaceOnUse">
<stop stop-color="#00A0FF"/>
<stop offset="0.01" stop-color="#00A1FF"/>
<stop offset="0.26" stop-color="#00BEFF"/>
<stop offset="0.51" stop-color="#00D2FF"/>
<stop offset="0.76" stop-color="#00DFFF"/>
<stop offset="1" stop-color="#00E3FF"/>
</linearGradient>
<linearGradient id="paint1_linear_92_5383" x1="34.0886" y1="18.5596" x2="0.222627" y2="18.5596" gradientUnits="userSpaceOnUse">
<stop stop-color="#FFE000"/>
<stop offset="0.41" stop-color="#FFBD00"/>
<stop offset="0.78" stop-color="#FFA500"/>
<stop offset="1" stop-color="#FF9C00"/>
</linearGradient>
<linearGradient id="paint2_linear_92_5383" x1="21.4885" y1="21.7796" x2="-10.3755" y2="53.6296" gradientUnits="userSpaceOnUse">
<stop stop-color="#FF3A44"/>
<stop offset="1" stop-color="#C31162"/>
</linearGradient>
<linearGradient id="paint3_linear_92_5383" x1="-3.05339" y1="-9.18844" x2="11.1706" y2="5.03556" gradientUnits="userSpaceOnUse">
<stop stop-color="#32A071"/>
<stop offset="0.07" stop-color="#2DA771"/>
<stop offset="0.48" stop-color="#15CF74"/>
<stop offset="0.8" stop-color="#06E775"/>
<stop offset="1" stop-color="#00F076"/>
</linearGradient>
</defs>
</svg>
