<?xml version="1.0" standalone="no"?>
<!DOCTYPE svg PUBLIC "-//W3C//DTD SVG 20010904//EN"
 "http://www.w3.org/TR/2001/REC-SVG-20010904/DTD/svg10.dtd">
<svg version="1.0" xmlns="http://www.w3.org/2000/svg"
 width="117.000000pt" height="117.000000pt" viewBox="0 0 117.000000 117.000000"
 preserveAspectRatio="xMidYMid meet">
<metadata>
Created by potrace 1.14, written by Peter Selinger 2001-2017
</metadata>
<g transform="translate(0.000000,117.000000) scale(0.100000,-0.100000)"
fill="#000000" stroke="none">
<path d="M460 1134 c-276 -63 -464 -310 -447 -589 6 -100 33 -192 79 -267 17
-27 32 -48 35 -48 2 0 139 136 304 302 l300 302 -33 17 c-38 19 -61 42 -81 82
l-14 27 -216 -217 c-119 -120 -219 -215 -222 -211 -12 11 -12 103 0 154 19 84
58 136 221 299 85 85 154 156 154 158 0 7 -24 4 -80 -9z"/>
<path d="M716 1084 c-76 -76 21 -202 113 -148 36 21 49 49 45 94 -8 76 -103
108 -158 54z"/>
<path d="M751 611 l-302 -303 46 -29 c26 -17 52 -43 62 -64 l17 -36 218 218
c119 119 220 215 223 211 12 -12 6 -129 -9 -181 -21 -72 -53 -112 -220 -279
l-138 -138 53 0 c123 1 282 105 375 245 105 158 120 382 36 559 -57 119 -20
140 -361 -203z"/>
<path d="M346 203 c-53 -28 -61 -100 -17 -144 41 -40 91 -40 132 0 32 33 37
67 14 110 -23 45 -79 60 -129 34z"/>
</g>
</svg>
