<svg  viewBox="0 0 162 30" fill="none" xmlns="http://www.w3.org/2000/svg">
<path d="M42.6142 24.0269C40.3656 24.0269 38.6269 23.5241 37.3944 22.5151C36.1619 21.5061 35.5369 20.0641 35.5229 18.1891H38.6164C38.6304 19.3658 38.983 20.2107 39.6743 20.724C40.3656 21.2372 41.3747 21.4921 42.7084 21.4921C43.7943 21.4921 44.6218 21.2861 45.1979 20.8741C45.7705 20.4621 46.0568 19.872 46.0568 19.0934C46.0568 18.444 45.8124 17.9447 45.3236 17.6061C44.8347 17.2639 43.9479 16.9636 42.6595 16.6983L41.263 16.419C37.7121 15.7521 35.9384 14.0797 35.9384 11.3947C35.9384 9.97018 36.4796 8.83195 37.5655 7.98701C38.6513 7.14207 40.1562 6.7196 42.0765 6.7196C44.2621 6.7196 45.9171 7.18397 47.0414 8.1162C48.1656 9.04493 48.7592 10.3473 48.822 12.0232H45.774C45.7111 11.077 45.3969 10.3787 44.8313 9.93177C44.2656 9.48137 43.3613 9.25791 42.1219 9.25791C41.1617 9.25791 40.425 9.43598 39.9117 9.79211C39.3985 10.1482 39.1436 10.651 39.1436 11.3039C39.1436 11.9708 39.381 12.4806 39.8524 12.8402C40.3237 13.1963 41.1652 13.5001 42.3767 13.748L43.8187 14.0273C45.7565 14.4148 47.1566 14.9909 48.0155 15.7591C48.8744 16.5272 49.3073 17.5851 49.3073 18.9328C49.3073 20.5459 48.7173 21.7958 47.5407 22.6897C46.364 23.58 44.7195 24.0269 42.6142 24.0269Z" fill="#676767"/>
<path d="M64.8884 11.3773C66.2047 11.3773 67.2347 11.7649 67.9714 12.54C68.7081 13.3151 69.0747 14.3765 69.0747 15.7277V23.6569H66.1454V16.1921C66.1454 14.6733 65.4541 13.9121 64.0749 13.9121C63.3312 13.9121 62.7307 14.181 62.2733 14.7152C61.8159 15.2494 61.589 16.028 61.589 17.051V23.6569H58.6806V16.1921C58.6806 14.6733 57.9823 13.9121 56.5892 13.9121C55.8594 13.9121 55.2659 14.181 54.8085 14.7152C54.3511 15.2494 54.1242 16.028 54.1242 17.051V23.6569H51.1948V11.6566H54.0334V13.3779C54.8539 12.0442 55.9956 11.3773 57.4516 11.3773C59.2811 11.3773 60.5206 12.121 61.1735 13.6084C62.0673 12.121 63.3103 11.3773 64.8884 11.3773Z" fill="#676767"/>
<path d="M82.4721 23.6569H79.5428C79.4031 23.409 79.2949 22.9202 79.2181 22.1905C78.4115 23.3532 77.1267 23.9362 75.3565 23.9362C74.0402 23.9362 72.9892 23.6185 72.2037 22.9831C71.4216 22.3476 71.0305 21.4643 71.0305 20.333C71.0305 18.1474 72.5668 16.9009 75.6358 16.5902L77.4479 16.4261C78.0519 16.3492 78.4883 16.2061 78.7502 15.9966C79.0121 15.7871 79.1447 15.4729 79.1447 15.0539C79.1447 14.5407 78.9771 14.1671 78.6454 13.9262C78.3103 13.6852 77.7516 13.5665 76.9591 13.5665C76.1071 13.5665 75.4926 13.7097 75.1225 13.996C74.749 14.2823 74.5325 14.7746 74.4731 15.4729H71.5892C71.7602 12.746 73.5584 11.3809 76.9835 11.3809C80.3179 11.3809 81.9833 12.5819 81.9833 14.9841V21.3805C81.9833 22.4314 82.1474 23.1891 82.4721 23.6569ZM76.0513 21.8414C76.966 21.8414 77.7097 21.59 78.2858 21.0872C78.8584 20.5844 79.1447 19.8582 79.1447 18.912V17.8192C78.8654 18.0671 78.408 18.2312 77.7726 18.308L76.1909 18.493C75.4158 18.5873 74.8607 18.7688 74.529 19.0412C74.1938 19.3135 74.0297 19.7046 74.0297 20.2143C74.0297 20.7241 74.2043 21.1256 74.5534 21.4119C74.9026 21.6982 75.4019 21.8414 76.0513 21.8414Z" fill="#676767"/>
<path d="M90.8665 11.4681C91.1284 11.4681 91.3693 11.4821 91.5892 11.5135V14.2124H90.8455C89.7283 14.2124 88.8729 14.4953 88.2758 15.0609C87.6788 15.6265 87.382 16.461 87.382 17.5608V23.6534H84.4526V11.6567H87.2877V13.797C87.9511 12.2432 89.1452 11.4681 90.8665 11.4681Z" fill="#676767"/>
<path d="M99.7724 11.6568V13.8879H97.4017V20.3751C97.4017 20.7626 97.5064 21.035 97.7159 21.1886C97.9254 21.3422 98.2781 21.4225 98.7738 21.4225H99.7724V23.6536C99.137 23.7164 98.6237 23.7478 98.2362 23.7478C96.9338 23.7478 95.9842 23.5034 95.3871 23.0146C94.7901 22.5258 94.4933 21.7472 94.4933 20.6788V13.8879H92.6323V11.6568H94.4933V8.16882H97.4017V11.6568H99.7724Z" fill="#676767"/>
<path d="M108.192 24.0269C105.944 24.0269 104.205 23.5241 102.973 22.5151C101.74 21.5061 101.115 20.0641 101.101 18.1891H104.195C104.209 19.3658 104.561 20.2107 105.252 20.724C105.94 21.2372 106.953 21.4921 108.287 21.4921C109.372 21.4921 110.2 21.2861 110.776 20.8741C111.349 20.4621 111.635 19.872 111.635 19.0934C111.635 18.444 111.39 17.9447 110.902 17.6061C110.413 17.2639 109.526 16.9636 108.238 16.6983L106.841 16.419C103.29 15.7521 101.517 14.0797 101.517 11.3947C101.517 9.97018 102.058 8.83195 103.144 7.98701C104.229 7.14207 105.731 6.7196 107.655 6.7196C109.84 6.7196 111.495 7.18397 112.619 8.1162C113.744 9.04493 114.337 10.3473 114.4 12.0232H111.356C111.293 11.077 110.978 10.3787 110.413 9.93177C109.847 9.48137 108.943 9.25791 107.703 9.25791C106.743 9.25791 106.007 9.43598 105.493 9.79211C104.98 10.1482 104.725 10.651 104.725 11.3039C104.725 11.9708 104.963 12.4806 105.434 12.8402C105.905 13.1963 106.747 13.5001 107.958 13.748L109.4 14.0273C111.338 14.4148 112.738 14.9909 113.597 15.7591C114.456 16.5272 114.889 17.5851 114.889 18.9328C114.889 20.5459 114.299 21.7958 113.122 22.6897C111.946 23.58 110.301 24.0269 108.192 24.0269Z" fill="#F15A22"/>
<path d="M127.77 23.657H124.84C124.701 23.4092 124.592 22.9203 124.516 22.1906C123.709 23.3533 122.424 23.9364 120.654 23.9364C119.338 23.9364 118.287 23.6186 117.505 22.9832C116.723 22.3477 116.332 21.4644 116.332 20.3332C116.332 18.1475 117.868 16.901 120.937 16.5903L122.749 16.4262C123.353 16.3494 123.789 16.2062 124.051 15.9967C124.313 15.7872 124.446 15.473 124.446 15.054C124.446 14.5408 124.278 14.1672 123.946 13.9263C123.611 13.6854 123.053 13.5667 122.26 13.5667C121.408 13.5667 120.794 13.7098 120.424 13.9961C120.05 14.2824 119.834 14.7747 119.771 15.473H116.887C117.058 12.7462 118.856 11.381 122.281 11.381C125.615 11.381 127.281 12.5821 127.281 14.9842V21.3806C127.284 22.4315 127.445 23.1892 127.77 23.657ZM121.352 21.8415C122.267 21.8415 123.011 21.5901 123.583 21.0873C124.156 20.5845 124.442 19.8583 124.442 18.9121V17.8193C124.163 18.0672 123.706 18.2313 123.07 18.3081L121.488 18.4931C120.713 18.5874 120.158 18.769 119.827 19.0413C119.491 19.3136 119.327 19.7047 119.327 20.2144C119.327 20.7242 119.502 21.1257 119.851 21.412C120.2 21.6983 120.703 21.8415 121.352 21.8415Z" fill="#F15A22"/>
<path d="M136.123 14.8653L137.285 11.6566H140.33L135.864 23.6569H132.491L128.05 11.6566H131.189L132.352 14.8897C132.893 16.5796 133.521 18.6186 134.237 21.0068C134.81 19.083 135.438 17.037 136.123 14.8653Z" fill="#F15A22"/>
<path d="M152.539 17.8647V18.563H143.563C143.671 19.586 143.992 20.3576 144.526 20.8778C145.061 21.3981 145.78 21.6564 146.677 21.6564C148.011 21.6564 148.926 21.0838 149.421 19.9351H152.236C151.925 21.1606 151.275 22.1313 150.28 22.854C149.289 23.5767 148.077 23.9364 146.653 23.9364C144.869 23.9364 143.427 23.3638 142.327 22.2151C141.227 21.0664 140.675 19.5476 140.675 17.6587C140.675 15.7663 141.216 14.2475 142.302 13.1023C143.402 11.9536 144.837 11.381 146.604 11.381C148.419 11.381 149.861 11.978 150.93 13.1721C152.005 14.3627 152.539 15.9269 152.539 17.8647ZM146.586 13.6539C144.865 13.6539 143.867 14.6071 143.587 16.5135H149.61C149.484 15.6301 149.16 14.9318 148.632 14.4221C148.105 13.9123 147.424 13.6539 146.586 13.6539Z" fill="#F15A22"/>
<path d="M161.074 11.4681C161.335 11.4681 161.576 11.4821 161.796 11.5135V14.2124H161.053C159.935 14.2124 159.08 14.4953 158.483 15.0609C157.886 15.6265 157.589 16.461 157.589 17.5608V23.6534H154.66V11.6567H157.495V13.797C158.162 12.2432 159.356 11.4681 161.074 11.4681Z" fill="#F15A22"/>
<path d="M29.2005 14.5685C29.197 14.4079 29.1866 14.2473 29.1726 14.0902C29.1726 14.0657 29.1691 14.0483 29.1691 14.0273C29.1691 13.9994 29.1691 13.968 29.1656 13.94C29.1516 13.7655 29.1342 13.5909 29.1167 13.4163C28.8165 10.8012 27.8144 8.39903 26.3061 6.4054L25.6008 7.10719L25.5973 7.10369L24.8955 7.80897L22.9857 9.70834L22.9962 9.71882L11.153 21.6108L11.0972 21.6667C12.6509 22.0787 13.8904 23.2693 14.3687 24.7951L25.311 13.8004C25.3808 14.0832 25.4437 14.3695 25.4856 14.6628C25.4856 14.6663 25.4891 14.6767 25.4891 14.6872C25.5484 15.1062 25.5799 15.5356 25.5799 15.9651C25.5799 18.3218 24.6686 20.532 23.0101 22.1869L15.7478 29.4492C15.9329 29.4352 16.1144 29.4213 16.2995 29.4038C16.2995 29.4038 16.2995 29.4038 16.303 29.4038C23.1882 28.6985 28.6419 23.1401 29.1726 16.192C29.1831 16.0524 29.1901 15.9162 29.197 15.7731C29.197 15.7451 29.2005 15.7137 29.2005 15.6858C29.211 15.5287 29.2145 15.3715 29.2145 15.2179V15.0887C29.2145 14.9107 29.2075 14.7396 29.2005 14.5685Z" fill="#F15A22"/>
<path d="M9.88378 28.5765C8.57098 28.5765 7.49561 27.5011 7.49561 26.1883C7.49561 24.8755 8.57098 23.8002 9.88378 23.8002C11.1966 23.8002 12.272 24.8755 12.272 26.1883C12.272 27.5011 11.1966 28.5765 9.88378 28.5765Z" fill="#676767"/>
<path d="M0.244503 15.431C0.247994 15.5916 0.258469 15.7522 0.272435 15.9093C0.272435 15.9338 0.275926 15.9512 0.275926 15.9722C0.275926 16.0001 0.275926 16.0315 0.279418 16.0595C0.293384 16.234 0.310841 16.4086 0.328298 16.5832C0.628566 19.1983 1.63062 21.6004 3.13895 23.5941L3.84423 22.8923L3.84772 22.8958L4.54951 22.1905L6.45935 20.2911L6.44887 20.2807L18.299 8.39564L18.3548 8.33978C16.8011 7.92778 15.5617 6.73718 15.0833 5.2114L4.141 16.2061C4.07117 15.9233 4.00833 15.637 3.96643 15.3437C3.96643 15.3402 3.96294 15.3297 3.96294 15.3193C3.90358 14.9003 3.87216 14.4708 3.87216 14.0414C3.87216 11.6846 4.78344 9.47451 6.44189 7.81954L13.7042 0.557251C13.5191 0.571217 13.3376 0.585182 13.1525 0.602639C13.1525 0.602639 13.1525 0.602639 13.149 0.602639C6.26383 1.30792 0.810124 6.86637 0.279418 13.8144C0.268943 13.9541 0.26196 14.0903 0.254977 14.2334C0.254977 14.2613 0.251486 14.2928 0.251486 14.3207C0.241011 14.4778 0.23752 14.6349 0.23752 14.7886V14.9177C0.230537 15.0923 0.234028 15.2634 0.244503 15.431Z" fill="#676767"/>
<path d="M19.5557 1.42664C20.8685 1.42664 21.9438 2.50202 21.9438 3.81481C21.9438 5.12761 20.8685 6.20299 19.5557 6.20299C18.2429 6.20299 17.1675 5.12761 17.1675 3.81481C17.171 2.49852 18.2429 1.42664 19.5557 1.42664Z" fill="#F15A22"/>
</svg>
